<svg width="1363" height="163" viewBox="0 0 1363 163" fill="none" xmlns="http://www.w3.org/2000/svg">
<path d="M0 15C0 6.71573 6.71573 0 15 0H37V163H15C6.71573 163 0 156.284 0 148V15Z" fill="#424242"/>
<rect width="1097" height="163" transform="translate(37)" fill="#F0F0F0"/>
<path d="M101.906 53.9219L94.3945 51.2383V48.0859L104.602 52.375V54.6367L101.906 53.9219ZM94.3945 56.1719L101.918 53.4297L104.602 52.7852V55.0352L94.3945 59.3242V56.1719ZM122.789 55.3398H126.293C126.223 56.4883 125.906 57.5078 125.344 58.3984C124.789 59.2891 124.012 59.9844 123.012 60.4844C122.02 60.9844 120.824 61.2344 119.426 61.2344C118.332 61.2344 117.352 61.0469 116.484 60.6719C115.617 60.2891 114.875 59.7422 114.258 59.0312C113.648 58.3203 113.184 57.4609 112.863 56.4531C112.543 55.4453 112.383 54.3164 112.383 53.0664V51.8828C112.383 50.6328 112.547 49.5039 112.875 48.4961C113.211 47.4805 113.688 46.6172 114.305 45.9062C114.93 45.1953 115.676 44.6484 116.543 44.2656C117.41 43.8828 118.379 43.6914 119.449 43.6914C120.871 43.6914 122.07 43.9492 123.047 44.4648C124.031 44.9805 124.793 45.6914 125.332 46.5977C125.879 47.5039 126.207 48.5352 126.316 49.6914H122.801C122.762 49.0039 122.625 48.4219 122.391 47.9453C122.156 47.4609 121.801 47.0977 121.324 46.8555C120.855 46.6055 120.23 46.4805 119.449 46.4805C118.863 46.4805 118.352 46.5898 117.914 46.8086C117.477 47.0273 117.109 47.3594 116.812 47.8047C116.516 48.25 116.293 48.8125 116.145 49.4922C116.004 50.1641 115.934 50.9531 115.934 51.8594V53.0664C115.934 53.9492 116 54.7266 116.133 55.3984C116.266 56.0625 116.469 56.625 116.742 57.0859C117.023 57.5391 117.383 57.8828 117.82 58.1172C118.266 58.3438 118.801 58.457 119.426 58.457C120.16 58.457 120.766 58.3398 121.242 58.1055C121.719 57.8711 122.082 57.5234 122.332 57.0625C122.59 56.6016 122.742 56.0273 122.789 55.3398ZM127.852 54.7891V54.543C127.852 53.6133 127.984 52.7578 128.25 51.9766C128.516 51.1875 128.902 50.5039 129.41 49.9258C129.918 49.3477 130.543 48.8984 131.285 48.5781C132.027 48.25 132.879 48.0859 133.84 48.0859C134.801 48.0859 135.656 48.25 136.406 48.5781C137.156 48.8984 137.785 49.3477 138.293 49.9258C138.809 50.5039 139.199 51.1875 139.465 51.9766C139.73 52.7578 139.863 53.6133 139.863 54.543V54.7891C139.863 55.7109 139.73 56.5664 139.465 57.3555C139.199 58.1367 138.809 58.8203 138.293 59.4062C137.785 59.9844 137.16 60.4336 136.418 60.7539C135.676 61.0742 134.824 61.2344 133.863 61.2344C132.902 61.2344 132.047 61.0742 131.297 60.7539C130.555 60.4336 129.926 59.9844 129.41 59.4062C128.902 58.8203 128.516 58.1367 128.25 57.3555C127.984 56.5664 127.852 55.7109 127.852 54.7891ZM131.227 54.543V54.7891C131.227 55.3203 131.273 55.8164 131.367 56.2773C131.461 56.7383 131.609 57.1445 131.812 57.4961C132.023 57.8398 132.297 58.1094 132.633 58.3047C132.969 58.5 133.379 58.5977 133.863 58.5977C134.332 58.5977 134.734 58.5 135.07 58.3047C135.406 58.1094 135.676 57.8398 135.879 57.4961C136.082 57.1445 136.23 56.7383 136.324 56.2773C136.426 55.8164 136.477 55.3203 136.477 54.7891V54.543C136.477 54.0273 136.426 53.543 136.324 53.0898C136.23 52.6289 136.078 52.2227 135.867 51.8711C135.664 51.5117 135.395 51.2305 135.059 51.0273C134.723 50.8242 134.316 50.7227 133.84 50.7227C133.363 50.7227 132.957 50.8242 132.621 51.0273C132.293 51.2305 132.023 51.5117 131.812 51.8711C131.609 52.2227 131.461 52.6289 131.367 53.0898C131.273 53.543 131.227 54.0273 131.227 54.543ZM148.793 57.4961C148.793 57.2539 148.723 57.0352 148.582 56.8398C148.441 56.6445 148.18 56.4648 147.797 56.3008C147.422 56.1289 146.879 55.9727 146.168 55.832C145.527 55.6914 144.93 55.5156 144.375 55.3047C143.828 55.0859 143.352 54.8242 142.945 54.5195C142.547 54.2148 142.234 53.8555 142.008 53.4414C141.781 53.0195 141.668 52.5391 141.668 52C141.668 51.4688 141.781 50.9688 142.008 50.5C142.242 50.0312 142.574 49.6172 143.004 49.2578C143.441 48.8906 143.973 48.6055 144.598 48.4023C145.23 48.1914 145.941 48.0859 146.73 48.0859C147.832 48.0859 148.777 48.2617 149.566 48.6133C150.363 48.9648 150.973 49.4492 151.395 50.0664C151.824 50.6758 152.039 51.3711 152.039 52.1523H148.664C148.664 51.8242 148.594 51.5312 148.453 51.2734C148.32 51.0078 148.109 50.8008 147.82 50.6523C147.539 50.4961 147.172 50.418 146.719 50.418C146.344 50.418 146.02 50.4844 145.746 50.6172C145.473 50.7422 145.262 50.9141 145.113 51.1328C144.973 51.3438 144.902 51.5781 144.902 51.8359C144.902 52.0312 144.941 52.207 145.02 52.3633C145.105 52.5117 145.242 52.6484 145.43 52.7734C145.617 52.8984 145.859 53.0156 146.156 53.125C146.461 53.2266 146.836 53.3203 147.281 53.4062C148.195 53.5938 149.012 53.8398 149.73 54.1445C150.449 54.4414 151.02 54.8477 151.441 55.3633C151.863 55.8711 152.074 56.5391 152.074 57.3672C152.074 57.9297 151.949 58.4453 151.699 58.9141C151.449 59.3828 151.09 59.793 150.621 60.1445C150.152 60.4883 149.59 60.7578 148.934 60.9531C148.285 61.1406 147.555 61.2344 146.742 61.2344C145.562 61.2344 144.562 61.0234 143.742 60.6016C142.93 60.1797 142.312 59.6445 141.891 58.9961C141.477 58.3398 141.27 57.668 141.27 56.9805H144.469C144.484 57.4414 144.602 57.8125 144.82 58.0938C145.047 58.375 145.332 58.5781 145.676 58.7031C146.027 58.8281 146.406 58.8906 146.812 58.8906C147.25 58.8906 147.613 58.832 147.902 58.7148C148.191 58.5898 148.41 58.4258 148.559 58.2227C148.715 58.0117 148.793 57.7695 148.793 57.4961ZM157.641 50.9453V61H154.254V48.3203H157.43L157.641 50.9453ZM157.172 54.2148H156.234C156.234 53.332 156.34 52.5195 156.551 51.7773C156.77 51.0273 157.086 50.3789 157.5 49.832C157.922 49.2773 158.441 48.8477 159.059 48.543C159.676 48.2383 160.391 48.0859 161.203 48.0859C161.766 48.0859 162.281 48.1719 162.75 48.3438C163.219 48.5078 163.621 48.7695 163.957 49.1289C164.301 49.4805 164.566 49.9414 164.754 50.5117C164.941 51.0742 165.035 51.75 165.035 52.5391V61H161.66V52.9141C161.66 52.3359 161.582 51.8906 161.426 51.5781C161.27 51.2656 161.047 51.0469 160.758 50.9219C160.477 50.7969 160.137 50.7344 159.738 50.7344C159.301 50.7344 158.918 50.8242 158.59 51.0039C158.27 51.1836 158.004 51.4336 157.793 51.7539C157.582 52.0664 157.426 52.4336 157.324 52.8555C157.223 53.2773 157.172 53.7305 157.172 54.2148ZM164.719 53.8281L163.512 53.9805C163.512 53.1523 163.613 52.3828 163.816 51.6719C164.027 50.9609 164.336 50.3359 164.742 49.7969C165.156 49.2578 165.668 48.8398 166.277 48.543C166.887 48.2383 167.59 48.0859 168.387 48.0859C168.996 48.0859 169.551 48.1758 170.051 48.3555C170.551 48.5273 170.977 48.8047 171.328 49.1875C171.688 49.5625 171.961 50.0547 172.148 50.6641C172.344 51.2734 172.441 52.0195 172.441 52.9023V61H169.055V52.9023C169.055 52.3164 168.977 51.8711 168.82 51.5664C168.672 51.2539 168.453 51.0391 168.164 50.9219C167.883 50.7969 167.547 50.7344 167.156 50.7344C166.75 50.7344 166.395 50.8164 166.09 50.9805C165.785 51.1367 165.531 51.3555 165.328 51.6367C165.125 51.918 164.973 52.2461 164.871 52.6211C164.77 52.9883 164.719 53.3906 164.719 53.8281ZM178.617 48.3203V61H175.23V48.3203H178.617ZM175.02 45.0156C175.02 44.5234 175.191 44.1172 175.535 43.7969C175.879 43.4766 176.34 43.3164 176.918 43.3164C177.488 43.3164 177.945 43.4766 178.289 43.7969C178.641 44.1172 178.816 44.5234 178.816 45.0156C178.816 45.5078 178.641 45.9141 178.289 46.2344C177.945 46.5547 177.488 46.7148 176.918 46.7148C176.34 46.7148 175.879 46.5547 175.535 46.2344C175.191 45.9141 175.02 45.5078 175.02 45.0156ZM186.645 58.5977C187.059 58.5977 187.426 58.5195 187.746 58.3633C188.066 58.1992 188.316 57.9727 188.496 57.6836C188.684 57.3867 188.781 57.0391 188.789 56.6406H191.965C191.957 57.5312 191.719 58.3242 191.25 59.0195C190.781 59.707 190.152 60.25 189.363 60.6484C188.574 61.0391 187.691 61.2344 186.715 61.2344C185.73 61.2344 184.871 61.0703 184.137 60.7422C183.41 60.4141 182.805 59.9609 182.32 59.3828C181.836 58.7969 181.473 58.1172 181.23 57.3438C180.988 56.5625 180.867 55.7266 180.867 54.8359V54.4961C180.867 53.5977 180.988 52.7617 181.23 51.9883C181.473 51.207 181.836 50.5273 182.32 49.9492C182.805 49.3633 183.41 48.9062 184.137 48.5781C184.863 48.25 185.715 48.0859 186.691 48.0859C187.73 48.0859 188.641 48.2852 189.422 48.6836C190.211 49.082 190.828 49.6523 191.273 50.3945C191.727 51.1289 191.957 52 191.965 53.0078H188.789C188.781 52.5859 188.691 52.2031 188.52 51.8594C188.355 51.5156 188.113 51.2422 187.793 51.0391C187.48 50.8281 187.094 50.7227 186.633 50.7227C186.141 50.7227 185.738 50.8281 185.426 51.0391C185.113 51.2422 184.871 51.5234 184.699 51.8828C184.527 52.2344 184.406 52.6367 184.336 53.0898C184.273 53.5352 184.242 54.0039 184.242 54.4961V54.8359C184.242 55.3281 184.273 55.8008 184.336 56.2539C184.398 56.707 184.516 57.1094 184.688 57.4609C184.867 57.8125 185.113 58.0898 185.426 58.293C185.738 58.4961 186.145 58.5977 186.645 58.5977ZM211.559 58.2578V61H202.477V58.2578H211.559ZM203.625 43.9375V61H200.109V43.9375H203.625ZM210.375 50.8867V53.5586H202.477V50.8867H210.375ZM211.547 43.9375V46.6914H202.477V43.9375H211.547ZM216.117 48.3203L218.215 52.1758L220.371 48.3203H223.969L220.383 54.5195L224.133 61H220.523L218.238 56.9219L215.953 61H212.344L216.094 54.5195L212.508 48.3203H216.117ZM228.984 50.7578V65.875H225.609V48.3203H228.738L228.984 50.7578ZM237.012 54.5195V54.7656C237.012 55.6875 236.902 56.543 236.684 57.332C236.473 58.1211 236.16 58.8086 235.746 59.3945C235.332 59.9727 234.816 60.4258 234.199 60.7539C233.59 61.0742 232.887 61.2344 232.09 61.2344C231.316 61.2344 230.645 61.0781 230.074 60.7656C229.504 60.4531 229.023 60.0156 228.633 59.4531C228.25 58.8828 227.941 58.2227 227.707 57.4727C227.473 56.7227 227.293 55.918 227.168 55.0586V54.4141C227.293 53.4922 227.473 52.6484 227.707 51.8828C227.941 51.1094 228.25 50.4414 228.633 49.8789C229.023 49.3086 229.5 48.8672 230.062 48.5547C230.633 48.2422 231.301 48.0859 232.066 48.0859C232.871 48.0859 233.578 48.2383 234.188 48.543C234.805 48.8477 235.32 49.2852 235.734 49.8555C236.156 50.4258 236.473 51.1055 236.684 51.8945C236.902 52.6836 237.012 53.5586 237.012 54.5195ZM233.625 54.7656V54.5195C233.625 53.9805 233.578 53.4844 233.484 53.0312C233.398 52.5703 233.258 52.168 233.062 51.8242C232.875 51.4805 232.625 51.2148 232.312 51.0273C232.008 50.832 231.637 50.7344 231.199 50.7344C230.738 50.7344 230.344 50.8086 230.016 50.957C229.695 51.1055 229.434 51.3203 229.23 51.6016C229.027 51.8828 228.875 52.2188 228.773 52.6094C228.672 53 228.609 53.4414 228.586 53.9336V55.5625C228.625 56.1406 228.734 56.6602 228.914 57.1211C229.094 57.5742 229.371 57.9336 229.746 58.1992C230.121 58.4648 230.613 58.5977 231.223 58.5977C231.668 58.5977 232.043 58.5 232.348 58.3047C232.652 58.1016 232.898 57.8242 233.086 57.4727C233.281 57.1211 233.418 56.7148 233.496 56.2539C233.582 55.793 233.625 55.2969 233.625 54.7656ZM242.672 43V61H239.285V43H242.672ZM244.922 54.7891V54.543C244.922 53.6133 245.055 52.7578 245.32 51.9766C245.586 51.1875 245.973 50.5039 246.48 49.9258C246.988 49.3477 247.613 48.8984 248.355 48.5781C249.098 48.25 249.949 48.0859 250.91 48.0859C251.871 48.0859 252.727 48.25 253.477 48.5781C254.227 48.8984 254.855 49.3477 255.363 49.9258C255.879 50.5039 256.27 51.1875 256.535 51.9766C256.801 52.7578 256.934 53.6133 256.934 54.543V54.7891C256.934 55.7109 256.801 56.5664 256.535 57.3555C256.27 58.1367 255.879 58.8203 255.363 59.4062C254.855 59.9844 254.23 60.4336 253.488 60.7539C252.746 61.0742 251.895 61.2344 250.934 61.2344C249.973 61.2344 249.117 61.0742 248.367 60.7539C247.625 60.4336 246.996 59.9844 246.48 59.4062C245.973 58.8203 245.586 58.1367 245.32 57.3555C245.055 56.5664 244.922 55.7109 244.922 54.7891ZM248.297 54.543V54.7891C248.297 55.3203 248.344 55.8164 248.438 56.2773C248.531 56.7383 248.68 57.1445 248.883 57.4961C249.094 57.8398 249.367 58.1094 249.703 58.3047C250.039 58.5 250.449 58.5977 250.934 58.5977C251.402 58.5977 251.805 58.5 252.141 58.3047C252.477 58.1094 252.746 57.8398 252.949 57.4961C253.152 57.1445 253.301 56.7383 253.395 56.2773C253.496 55.8164 253.547 55.3203 253.547 54.7891V54.543C253.547 54.0273 253.496 53.543 253.395 53.0898C253.301 52.6289 253.148 52.2227 252.938 51.8711C252.734 51.5117 252.465 51.2305 252.129 51.0273C251.793 50.8242 251.387 50.7227 250.91 50.7227C250.434 50.7227 250.027 50.8242 249.691 51.0273C249.363 51.2305 249.094 51.5117 248.883 51.8711C248.68 52.2227 248.531 52.6289 248.438 53.0898C248.344 53.543 248.297 54.0273 248.297 54.543ZM262.383 51.0859V61H259.008V48.3203H262.184L262.383 51.0859ZM266.203 48.2383L266.145 51.3672C265.98 51.3438 265.781 51.3242 265.547 51.3086C265.32 51.2852 265.113 51.2734 264.926 51.2734C264.449 51.2734 264.035 51.3359 263.684 51.4609C263.34 51.5781 263.051 51.7539 262.816 51.9883C262.59 52.2227 262.418 52.5078 262.301 52.8438C262.191 53.1797 262.129 53.5625 262.113 53.9922L261.434 53.7812C261.434 52.9609 261.516 52.207 261.68 51.5195C261.844 50.8242 262.082 50.2188 262.395 49.7031C262.715 49.1875 263.105 48.7891 263.566 48.5078C264.027 48.2266 264.555 48.0859 265.148 48.0859C265.336 48.0859 265.527 48.1016 265.723 48.1328C265.918 48.1562 266.078 48.1914 266.203 48.2383ZM273.398 61.2344C272.414 61.2344 271.531 61.0781 270.75 60.7656C269.969 60.4453 269.305 60.0039 268.758 59.4414C268.219 58.8789 267.805 58.2266 267.516 57.4844C267.227 56.7344 267.082 55.9375 267.082 55.0938V54.625C267.082 53.6641 267.219 52.7852 267.492 51.9883C267.766 51.1914 268.156 50.5 268.664 49.9141C269.18 49.3281 269.805 48.8789 270.539 48.5664C271.273 48.2461 272.102 48.0859 273.023 48.0859C273.922 48.0859 274.719 48.2344 275.414 48.5312C276.109 48.8281 276.691 49.25 277.16 49.7969C277.637 50.3438 277.996 51 278.238 51.7656C278.48 52.5234 278.602 53.3672 278.602 54.2969V55.7031H268.523V53.4531H275.285V53.1953C275.285 52.7266 275.199 52.3086 275.027 51.9414C274.863 51.5664 274.613 51.2695 274.277 51.0508C273.941 50.832 273.512 50.7227 272.988 50.7227C272.543 50.7227 272.16 50.8203 271.84 51.0156C271.52 51.2109 271.258 51.4844 271.055 51.8359C270.859 52.1875 270.711 52.6016 270.609 53.0781C270.516 53.5469 270.469 54.0625 270.469 54.625V55.0938C270.469 55.6016 270.539 56.0703 270.68 56.5C270.828 56.9297 271.035 57.3008 271.301 57.6133C271.574 57.9258 271.902 58.168 272.285 58.3398C272.676 58.5117 273.117 58.5977 273.609 58.5977C274.219 58.5977 274.785 58.4805 275.309 58.2461C275.84 58.0039 276.297 57.6406 276.68 57.1562L278.32 58.9375C278.055 59.3203 277.691 59.6875 277.23 60.0391C276.777 60.3906 276.23 60.6797 275.59 60.9062C274.949 61.125 274.219 61.2344 273.398 61.2344ZM283.898 51.0859V61H280.523V48.3203H283.699L283.898 51.0859ZM287.719 48.2383L287.66 51.3672C287.496 51.3438 287.297 51.3242 287.062 51.3086C286.836 51.2852 286.629 51.2734 286.441 51.2734C285.965 51.2734 285.551 51.3359 285.199 51.4609C284.855 51.5781 284.566 51.7539 284.332 51.9883C284.105 52.2227 283.934 52.5078 283.816 52.8438C283.707 53.1797 283.645 53.5625 283.629 53.9922L282.949 53.7812C282.949 52.9609 283.031 52.207 283.195 51.5195C283.359 50.8242 283.598 50.2188 283.91 49.7031C284.23 49.1875 284.621 48.7891 285.082 48.5078C285.543 48.2266 286.07 48.0859 286.664 48.0859C286.852 48.0859 287.043 48.1016 287.238 48.1328C287.434 48.1562 287.594 48.1914 287.719 48.2383Z" fill="#888888"/>
<path d="M118.594 98.4219V104.75H101.086V98.4219H118.594ZM103.828 84.875V119H95.6016V84.875H103.828ZM124.125 84.875V119H115.922V84.875H124.125ZM127.992 106.578V106.086C127.992 104.227 128.258 102.516 128.789 100.953C129.32 99.375 130.102 98.0078 131.133 96.8516C132.164 95.6953 133.438 94.7969 134.953 94.1562C136.469 93.5 138.219 93.1719 140.203 93.1719C142.203 93.1719 143.961 93.5 145.477 94.1562C147.008 94.7969 148.289 95.6953 149.32 96.8516C150.352 98.0078 151.133 99.375 151.664 100.953C152.195 102.516 152.461 104.227 152.461 106.086V106.578C152.461 108.422 152.195 110.133 151.664 111.711C151.133 113.273 150.352 114.641 149.32 115.812C148.289 116.969 147.016 117.867 145.5 118.508C143.984 119.148 142.234 119.469 140.25 119.469C138.266 119.469 136.508 119.148 134.977 118.508C133.445 117.867 132.164 116.969 131.133 115.812C130.102 114.641 129.32 113.273 128.789 111.711C128.258 110.133 127.992 108.422 127.992 106.578ZM135.891 106.086V106.578C135.891 107.531 135.961 108.422 136.102 109.25C136.242 110.078 136.477 110.805 136.805 111.43C137.133 112.039 137.578 112.516 138.141 112.859C138.703 113.203 139.406 113.375 140.25 113.375C141.078 113.375 141.766 113.203 142.312 112.859C142.875 112.516 143.32 112.039 143.648 111.43C143.977 110.805 144.211 110.078 144.352 109.25C144.492 108.422 144.562 107.531 144.562 106.578V106.086C144.562 105.164 144.492 104.297 144.352 103.484C144.211 102.656 143.977 101.93 143.648 101.305C143.32 100.664 142.875 100.164 142.312 99.8047C141.75 99.4453 141.047 99.2656 140.203 99.2656C139.375 99.2656 138.68 99.4453 138.117 99.8047C137.57 100.164 137.133 100.664 136.805 101.305C136.477 101.93 136.242 102.656 136.102 103.484C135.961 104.297 135.891 105.164 135.891 106.086ZM163.688 111.453L168.375 93.6406H173.32L171.562 102.57L166.922 119H162.961L163.688 111.453ZM161.836 93.6406L164.742 111.312L165.07 119H160.266L154.266 93.6406H161.836ZM177.492 110.938L180.422 93.6406H187.992L182.039 119H177.234L177.492 110.938ZM173.883 93.6406L178.617 111.406L179.344 119H175.336L170.789 102.617L169.102 93.6406H173.883ZM218.297 84.875V119H210.07V84.875H218.297ZM228.562 84.875V91.2266H200.039V84.875H228.562ZM225.773 106.578V106.086C225.773 104.227 226.039 102.516 226.57 100.953C227.102 99.375 227.883 98.0078 228.914 96.8516C229.945 95.6953 231.219 94.7969 232.734 94.1562C234.25 93.5 236 93.1719 237.984 93.1719C239.984 93.1719 241.742 93.5 243.258 94.1562C244.789 94.7969 246.07 95.6953 247.102 96.8516C248.133 98.0078 248.914 99.375 249.445 100.953C249.977 102.516 250.242 104.227 250.242 106.086V106.578C250.242 108.422 249.977 110.133 249.445 111.711C248.914 113.273 248.133 114.641 247.102 115.812C246.07 116.969 244.797 117.867 243.281 118.508C241.766 119.148 240.016 119.469 238.031 119.469C236.047 119.469 234.289 119.148 232.758 118.508C231.227 117.867 229.945 116.969 228.914 115.812C227.883 114.641 227.102 113.273 226.57 111.711C226.039 110.133 225.773 108.422 225.773 106.578ZM233.672 106.086V106.578C233.672 107.531 233.742 108.422 233.883 109.25C234.023 110.078 234.258 110.805 234.586 111.43C234.914 112.039 235.359 112.516 235.922 112.859C236.484 113.203 237.188 113.375 238.031 113.375C238.859 113.375 239.547 113.203 240.094 112.859C240.656 112.516 241.102 112.039 241.43 111.43C241.758 110.805 241.992 110.078 242.133 109.25C242.273 108.422 242.344 107.531 242.344 106.578V106.086C242.344 105.164 242.273 104.297 242.133 103.484C241.992 102.656 241.758 101.93 241.43 101.305C241.102 100.664 240.656 100.164 240.094 99.8047C239.531 99.4453 238.828 99.2656 237.984 99.2656C237.156 99.2656 236.461 99.4453 235.898 99.8047C235.352 100.164 234.914 100.664 234.586 101.305C234.258 101.93 234.023 102.656 233.883 103.484C233.742 104.297 233.672 105.164 233.672 106.086ZM266.086 84.875H279.516C282.141 84.875 284.422 85.2656 286.359 86.0469C288.297 86.8281 289.789 87.9844 290.836 89.5156C291.898 91.0469 292.43 92.9375 292.43 95.1875C292.43 97.1406 292.125 98.7734 291.516 100.086C290.906 101.398 290.055 102.484 288.961 103.344C287.883 104.188 286.625 104.883 285.188 105.43L282.492 106.953H271.219L271.172 100.602H279.516C280.562 100.602 281.43 100.414 282.117 100.039C282.805 99.6641 283.32 99.1328 283.664 98.4453C284.023 97.7422 284.203 96.9062 284.203 95.9375C284.203 94.9531 284.023 94.1094 283.664 93.4062C283.305 92.7031 282.773 92.1641 282.07 91.7891C281.383 91.4141 280.531 91.2266 279.516 91.2266H274.312V119H266.086V84.875ZM284.766 119L277.219 103.906L285.938 103.859L293.578 118.648V119H284.766ZM311.836 112.836V93.6406H319.758V119H312.352L311.836 112.836ZM312.586 107.68L314.648 107.633C314.648 109.336 314.445 110.914 314.039 112.367C313.633 113.805 313.031 115.055 312.234 116.117C311.453 117.18 310.484 118.008 309.328 118.602C308.188 119.18 306.867 119.469 305.367 119.469C304.117 119.469 302.969 119.297 301.922 118.953C300.891 118.594 300 118.039 299.25 117.289C298.5 116.523 297.914 115.547 297.492 114.359C297.086 113.156 296.883 111.719 296.883 110.047V93.6406H304.781V110.094C304.781 110.656 304.852 111.141 304.992 111.547C305.133 111.953 305.336 112.297 305.602 112.578C305.867 112.844 306.195 113.047 306.586 113.188C306.992 113.312 307.453 113.375 307.969 113.375C309.156 113.375 310.086 113.125 310.758 112.625C311.43 112.125 311.898 111.445 312.164 110.586C312.445 109.727 312.586 108.758 312.586 107.68ZM331.875 99.0547V119H323.977V93.6406H331.383L331.875 99.0547ZM330.938 105.453L329.086 105.5C329.086 103.562 329.32 101.836 329.789 100.32C330.258 98.7891 330.922 97.4922 331.781 96.4297C332.641 95.3672 333.664 94.5625 334.852 94.0156C336.055 93.4531 337.391 93.1719 338.859 93.1719C340.031 93.1719 341.102 93.3438 342.07 93.6875C343.055 94.0312 343.898 94.5859 344.602 95.3516C345.32 96.1172 345.867 97.1328 346.242 98.3984C346.633 99.6484 346.828 101.195 346.828 103.039V119H338.883V103.016C338.883 102 338.742 101.227 338.461 100.695C338.18 100.148 337.773 99.7734 337.242 99.5703C336.711 99.3672 336.062 99.2656 335.297 99.2656C334.484 99.2656 333.797 99.4219 333.234 99.7344C332.672 100.047 332.219 100.484 331.875 101.047C331.547 101.594 331.305 102.242 331.148 102.992C331.008 103.742 330.938 104.562 330.938 105.453ZM363.773 108.195H357.047C357.047 106.82 357.141 105.609 357.328 104.562C357.531 103.5 357.875 102.547 358.359 101.703C358.844 100.859 359.5 100.078 360.328 99.3594C361.062 98.75 361.695 98.1641 362.227 97.6016C362.758 97.0391 363.164 96.4688 363.445 95.8906C363.727 95.3125 363.867 94.6953 363.867 94.0391C363.867 93.2266 363.75 92.5625 363.516 92.0469C363.297 91.5312 362.961 91.1484 362.508 90.8984C362.07 90.6328 361.516 90.5 360.844 90.5C360.297 90.5 359.781 90.6328 359.297 90.8984C358.828 91.1641 358.445 91.5781 358.148 92.1406C357.852 92.6875 357.688 93.4141 357.656 94.3203H349.711C349.758 91.9922 350.273 90.1016 351.258 88.6484C352.258 87.1797 353.586 86.1094 355.242 85.4375C356.914 84.75 358.781 84.4062 360.844 84.4062C363.125 84.4062 365.086 84.7578 366.727 85.4609C368.367 86.1641 369.625 87.2109 370.5 88.6016C371.375 89.9766 371.812 91.6719 371.812 93.6875C371.812 95.0312 371.555 96.2031 371.039 97.2031C370.539 98.1875 369.859 99.1094 369 99.9688C368.156 100.812 367.211 101.719 366.164 102.688C365.258 103.484 364.641 104.297 364.312 105.125C363.984 105.938 363.805 106.961 363.773 108.195ZM356.086 115.32C356.086 114.195 356.492 113.258 357.305 112.508C358.117 111.742 359.172 111.359 360.469 111.359C361.766 111.359 362.82 111.742 363.633 112.508C364.445 113.258 364.852 114.195 364.852 115.32C364.852 116.445 364.445 117.391 363.633 118.156C362.82 118.906 361.766 119.281 360.469 119.281C359.172 119.281 358.117 118.906 357.305 118.156C356.492 117.391 356.086 116.445 356.086 115.32Z" fill="black"/>
<path d="M1134 0H1348C1356.28 0 1363 6.71573 1363 15V148C1363 156.284 1356.28 163 1348 163H1134V0Z" fill="#04D9FF"/>
<path d="M1260.62 78.8847C1263.81 78.8847 1266.93 79.805 1269.59 81.5293C1272.25 83.2536 1274.32 85.7044 1275.54 88.5718C1276.76 91.4391 1277.08 94.5943 1276.46 97.6383C1275.84 100.682 1274.3 103.478 1272.04 105.673C1269.78 107.868 1266.9 109.362 1263.77 109.968C1260.63 110.573 1257.39 110.262 1254.43 109.075C1251.48 107.887 1248.96 105.876 1247.18 103.295C1245.41 100.714 1244.46 97.6806 1244.46 94.5769C1244.46 90.4151 1246.16 86.4237 1249.19 83.4808C1252.22 80.538 1256.33 78.8847 1260.62 78.8847ZM1260.62 73.6539C1256.36 73.6539 1252.19 74.881 1248.65 77.1801C1245.11 79.4791 1242.35 82.7469 1240.72 86.57C1239.09 90.3932 1238.66 94.6001 1239.49 98.6588C1240.32 102.717 1242.37 106.446 1245.39 109.372C1248.4 112.298 1252.24 114.291 1256.41 115.098C1260.59 115.905 1264.92 115.491 1268.86 113.907C1272.79 112.324 1276.16 109.642 1278.52 106.201C1280.89 102.76 1282.15 98.7151 1282.15 94.5769C1282.15 89.0278 1279.88 83.706 1275.85 79.7821C1271.81 75.8583 1266.33 73.6539 1260.62 73.6539Z" fill="white"/>
<path d="M1274.08 47.5H1220.23C1218.8 47.5 1217.43 48.0511 1216.42 49.0321C1215.41 50.013 1214.85 51.3435 1214.85 52.7307V105.038C1214.85 106.426 1215.41 107.756 1216.42 108.737C1217.43 109.718 1218.8 110.269 1220.23 110.269H1231V105.038H1220.23V68.423H1279.46V52.7307C1279.46 51.3435 1278.89 50.013 1277.88 49.0321C1276.87 48.0511 1275.5 47.5 1274.08 47.5ZM1220.23 63.1922V52.7307H1274.08V63.1922H1220.23Z" fill="white"/>
<path d="M1255.23 86.731V102.423L1268.69 94.5771L1255.23 86.731Z" fill="white"/>
</svg>
