<svg width="1363" height="163" viewBox="0 0 1363 163" fill="none" xmlns="http://www.w3.org/2000/svg">
<path d="M0 15C0 6.71573 6.71573 0 15 0H37V163H15C6.71573 163 0 156.284 0 148V15Z" fill="#424242"/>
<rect width="1097" height="163" transform="translate(37)" fill="#F0F0F0"/>
<path d="M101.906 53.9219L94.3945 51.2383V48.0859L104.602 52.375V54.6367L101.906 53.9219ZM94.3945 56.1719L101.918 53.4297L104.602 52.7852V55.0352L94.3945 59.3242V56.1719ZM122.789 55.3398H126.293C126.223 56.4883 125.906 57.5078 125.344 58.3984C124.789 59.2891 124.012 59.9844 123.012 60.4844C122.02 60.9844 120.824 61.2344 119.426 61.2344C118.332 61.2344 117.352 61.0469 116.484 60.6719C115.617 60.2891 114.875 59.7422 114.258 59.0312C113.648 58.3203 113.184 57.4609 112.863 56.4531C112.543 55.4453 112.383 54.3164 112.383 53.0664V51.8828C112.383 50.6328 112.547 49.5039 112.875 48.4961C113.211 47.4805 113.688 46.6172 114.305 45.9062C114.93 45.1953 115.676 44.6484 116.543 44.2656C117.41 43.8828 118.379 43.6914 119.449 43.6914C120.871 43.6914 122.07 43.9492 123.047 44.4648C124.031 44.9805 124.793 45.6914 125.332 46.5977C125.879 47.5039 126.207 48.5352 126.316 49.6914H122.801C122.762 49.0039 122.625 48.4219 122.391 47.9453C122.156 47.4609 121.801 47.0977 121.324 46.8555C120.855 46.6055 120.23 46.4805 119.449 46.4805C118.863 46.4805 118.352 46.5898 117.914 46.8086C117.477 47.0273 117.109 47.3594 116.812 47.8047C116.516 48.25 116.293 48.8125 116.145 49.4922C116.004 50.1641 115.934 50.9531 115.934 51.8594V53.0664C115.934 53.9492 116 54.7266 116.133 55.3984C116.266 56.0625 116.469 56.625 116.742 57.0859C117.023 57.5391 117.383 57.8828 117.82 58.1172C118.266 58.3438 118.801 58.457 119.426 58.457C120.16 58.457 120.766 58.3398 121.242 58.1055C121.719 57.8711 122.082 57.5234 122.332 57.0625C122.59 56.6016 122.742 56.0273 122.789 55.3398ZM127.852 54.7891V54.543C127.852 53.6133 127.984 52.7578 128.25 51.9766C128.516 51.1875 128.902 50.5039 129.41 49.9258C129.918 49.3477 130.543 48.8984 131.285 48.5781C132.027 48.25 132.879 48.0859 133.84 48.0859C134.801 48.0859 135.656 48.25 136.406 48.5781C137.156 48.8984 137.785 49.3477 138.293 49.9258C138.809 50.5039 139.199 51.1875 139.465 51.9766C139.73 52.7578 139.863 53.6133 139.863 54.543V54.7891C139.863 55.7109 139.73 56.5664 139.465 57.3555C139.199 58.1367 138.809 58.8203 138.293 59.4062C137.785 59.9844 137.16 60.4336 136.418 60.7539C135.676 61.0742 134.824 61.2344 133.863 61.2344C132.902 61.2344 132.047 61.0742 131.297 60.7539C130.555 60.4336 129.926 59.9844 129.41 59.4062C128.902 58.8203 128.516 58.1367 128.25 57.3555C127.984 56.5664 127.852 55.7109 127.852 54.7891ZM131.227 54.543V54.7891C131.227 55.3203 131.273 55.8164 131.367 56.2773C131.461 56.7383 131.609 57.1445 131.812 57.4961C132.023 57.8398 132.297 58.1094 132.633 58.3047C132.969 58.5 133.379 58.5977 133.863 58.5977C134.332 58.5977 134.734 58.5 135.07 58.3047C135.406 58.1094 135.676 57.8398 135.879 57.4961C136.082 57.1445 136.23 56.7383 136.324 56.2773C136.426 55.8164 136.477 55.3203 136.477 54.7891V54.543C136.477 54.0273 136.426 53.543 136.324 53.0898C136.23 52.6289 136.078 52.2227 135.867 51.8711C135.664 51.5117 135.395 51.2305 135.059 51.0273C134.723 50.8242 134.316 50.7227 133.84 50.7227C133.363 50.7227 132.957 50.8242 132.621 51.0273C132.293 51.2305 132.023 51.5117 131.812 51.8711C131.609 52.2227 131.461 52.6289 131.367 53.0898C131.273 53.543 131.227 54.0273 131.227 54.543ZM148.793 57.4961C148.793 57.2539 148.723 57.0352 148.582 56.8398C148.441 56.6445 148.18 56.4648 147.797 56.3008C147.422 56.1289 146.879 55.9727 146.168 55.832C145.527 55.6914 144.93 55.5156 144.375 55.3047C143.828 55.0859 143.352 54.8242 142.945 54.5195C142.547 54.2148 142.234 53.8555 142.008 53.4414C141.781 53.0195 141.668 52.5391 141.668 52C141.668 51.4688 141.781 50.9688 142.008 50.5C142.242 50.0312 142.574 49.6172 143.004 49.2578C143.441 48.8906 143.973 48.6055 144.598 48.4023C145.23 48.1914 145.941 48.0859 146.73 48.0859C147.832 48.0859 148.777 48.2617 149.566 48.6133C150.363 48.9648 150.973 49.4492 151.395 50.0664C151.824 50.6758 152.039 51.3711 152.039 52.1523H148.664C148.664 51.8242 148.594 51.5312 148.453 51.2734C148.32 51.0078 148.109 50.8008 147.82 50.6523C147.539 50.4961 147.172 50.418 146.719 50.418C146.344 50.418 146.02 50.4844 145.746 50.6172C145.473 50.7422 145.262 50.9141 145.113 51.1328C144.973 51.3438 144.902 51.5781 144.902 51.8359C144.902 52.0312 144.941 52.207 145.02 52.3633C145.105 52.5117 145.242 52.6484 145.43 52.7734C145.617 52.8984 145.859 53.0156 146.156 53.125C146.461 53.2266 146.836 53.3203 147.281 53.4062C148.195 53.5938 149.012 53.8398 149.73 54.1445C150.449 54.4414 151.02 54.8477 151.441 55.3633C151.863 55.8711 152.074 56.5391 152.074 57.3672C152.074 57.9297 151.949 58.4453 151.699 58.9141C151.449 59.3828 151.09 59.793 150.621 60.1445C150.152 60.4883 149.59 60.7578 148.934 60.9531C148.285 61.1406 147.555 61.2344 146.742 61.2344C145.562 61.2344 144.562 61.0234 143.742 60.6016C142.93 60.1797 142.312 59.6445 141.891 58.9961C141.477 58.3398 141.27 57.668 141.27 56.9805H144.469C144.484 57.4414 144.602 57.8125 144.82 58.0938C145.047 58.375 145.332 58.5781 145.676 58.7031C146.027 58.8281 146.406 58.8906 146.812 58.8906C147.25 58.8906 147.613 58.832 147.902 58.7148C148.191 58.5898 148.41 58.4258 148.559 58.2227C148.715 58.0117 148.793 57.7695 148.793 57.4961ZM157.641 50.9453V61H154.254V48.3203H157.43L157.641 50.9453ZM157.172 54.2148H156.234C156.234 53.332 156.34 52.5195 156.551 51.7773C156.77 51.0273 157.086 50.3789 157.5 49.832C157.922 49.2773 158.441 48.8477 159.059 48.543C159.676 48.2383 160.391 48.0859 161.203 48.0859C161.766 48.0859 162.281 48.1719 162.75 48.3438C163.219 48.5078 163.621 48.7695 163.957 49.1289C164.301 49.4805 164.566 49.9414 164.754 50.5117C164.941 51.0742 165.035 51.75 165.035 52.5391V61H161.66V52.9141C161.66 52.3359 161.582 51.8906 161.426 51.5781C161.27 51.2656 161.047 51.0469 160.758 50.9219C160.477 50.7969 160.137 50.7344 159.738 50.7344C159.301 50.7344 158.918 50.8242 158.59 51.0039C158.27 51.1836 158.004 51.4336 157.793 51.7539C157.582 52.0664 157.426 52.4336 157.324 52.8555C157.223 53.2773 157.172 53.7305 157.172 54.2148ZM164.719 53.8281L163.512 53.9805C163.512 53.1523 163.613 52.3828 163.816 51.6719C164.027 50.9609 164.336 50.3359 164.742 49.7969C165.156 49.2578 165.668 48.8398 166.277 48.543C166.887 48.2383 167.59 48.0859 168.387 48.0859C168.996 48.0859 169.551 48.1758 170.051 48.3555C170.551 48.5273 170.977 48.8047 171.328 49.1875C171.688 49.5625 171.961 50.0547 172.148 50.6641C172.344 51.2734 172.441 52.0195 172.441 52.9023V61H169.055V52.9023C169.055 52.3164 168.977 51.8711 168.82 51.5664C168.672 51.2539 168.453 51.0391 168.164 50.9219C167.883 50.7969 167.547 50.7344 167.156 50.7344C166.75 50.7344 166.395 50.8164 166.09 50.9805C165.785 51.1367 165.531 51.3555 165.328 51.6367C165.125 51.918 164.973 52.2461 164.871 52.6211C164.77 52.9883 164.719 53.3906 164.719 53.8281ZM178.617 48.3203V61H175.23V48.3203H178.617ZM175.02 45.0156C175.02 44.5234 175.191 44.1172 175.535 43.7969C175.879 43.4766 176.34 43.3164 176.918 43.3164C177.488 43.3164 177.945 43.4766 178.289 43.7969C178.641 44.1172 178.816 44.5234 178.816 45.0156C178.816 45.5078 178.641 45.9141 178.289 46.2344C177.945 46.5547 177.488 46.7148 176.918 46.7148C176.34 46.7148 175.879 46.5547 175.535 46.2344C175.191 45.9141 175.02 45.5078 175.02 45.0156ZM186.645 58.5977C187.059 58.5977 187.426 58.5195 187.746 58.3633C188.066 58.1992 188.316 57.9727 188.496 57.6836C188.684 57.3867 188.781 57.0391 188.789 56.6406H191.965C191.957 57.5312 191.719 58.3242 191.25 59.0195C190.781 59.707 190.152 60.25 189.363 60.6484C188.574 61.0391 187.691 61.2344 186.715 61.2344C185.73 61.2344 184.871 61.0703 184.137 60.7422C183.41 60.4141 182.805 59.9609 182.32 59.3828C181.836 58.7969 181.473 58.1172 181.23 57.3438C180.988 56.5625 180.867 55.7266 180.867 54.8359V54.4961C180.867 53.5977 180.988 52.7617 181.23 51.9883C181.473 51.207 181.836 50.5273 182.32 49.9492C182.805 49.3633 183.41 48.9062 184.137 48.5781C184.863 48.25 185.715 48.0859 186.691 48.0859C187.73 48.0859 188.641 48.2852 189.422 48.6836C190.211 49.082 190.828 49.6523 191.273 50.3945C191.727 51.1289 191.957 52 191.965 53.0078H188.789C188.781 52.5859 188.691 52.2031 188.52 51.8594C188.355 51.5156 188.113 51.2422 187.793 51.0391C187.48 50.8281 187.094 50.7227 186.633 50.7227C186.141 50.7227 185.738 50.8281 185.426 51.0391C185.113 51.2422 184.871 51.5234 184.699 51.8828C184.527 52.2344 184.406 52.6367 184.336 53.0898C184.273 53.5352 184.242 54.0039 184.242 54.4961V54.8359C184.242 55.3281 184.273 55.8008 184.336 56.2539C184.398 56.707 184.516 57.1094 184.688 57.4609C184.867 57.8125 185.113 58.0898 185.426 58.293C185.738 58.4961 186.145 58.5977 186.645 58.5977ZM211.559 58.2578V61H202.477V58.2578H211.559ZM203.625 43.9375V61H200.109V43.9375H203.625ZM210.375 50.8867V53.5586H202.477V50.8867H210.375ZM211.547 43.9375V46.6914H202.477V43.9375H211.547ZM216.117 48.3203L218.215 52.1758L220.371 48.3203H223.969L220.383 54.5195L224.133 61H220.523L218.238 56.9219L215.953 61H212.344L216.094 54.5195L212.508 48.3203H216.117ZM228.984 50.7578V65.875H225.609V48.3203H228.738L228.984 50.7578ZM237.012 54.5195V54.7656C237.012 55.6875 236.902 56.543 236.684 57.332C236.473 58.1211 236.16 58.8086 235.746 59.3945C235.332 59.9727 234.816 60.4258 234.199 60.7539C233.59 61.0742 232.887 61.2344 232.09 61.2344C231.316 61.2344 230.645 61.0781 230.074 60.7656C229.504 60.4531 229.023 60.0156 228.633 59.4531C228.25 58.8828 227.941 58.2227 227.707 57.4727C227.473 56.7227 227.293 55.918 227.168 55.0586V54.4141C227.293 53.4922 227.473 52.6484 227.707 51.8828C227.941 51.1094 228.25 50.4414 228.633 49.8789C229.023 49.3086 229.5 48.8672 230.062 48.5547C230.633 48.2422 231.301 48.0859 232.066 48.0859C232.871 48.0859 233.578 48.2383 234.188 48.543C234.805 48.8477 235.32 49.2852 235.734 49.8555C236.156 50.4258 236.473 51.1055 236.684 51.8945C236.902 52.6836 237.012 53.5586 237.012 54.5195ZM233.625 54.7656V54.5195C233.625 53.9805 233.578 53.4844 233.484 53.0312C233.398 52.5703 233.258 52.168 233.062 51.8242C232.875 51.4805 232.625 51.2148 232.312 51.0273C232.008 50.832 231.637 50.7344 231.199 50.7344C230.738 50.7344 230.344 50.8086 230.016 50.957C229.695 51.1055 229.434 51.3203 229.23 51.6016C229.027 51.8828 228.875 52.2188 228.773 52.6094C228.672 53 228.609 53.4414 228.586 53.9336V55.5625C228.625 56.1406 228.734 56.6602 228.914 57.1211C229.094 57.5742 229.371 57.9336 229.746 58.1992C230.121 58.4648 230.613 58.5977 231.223 58.5977C231.668 58.5977 232.043 58.5 232.348 58.3047C232.652 58.1016 232.898 57.8242 233.086 57.4727C233.281 57.1211 233.418 56.7148 233.496 56.2539C233.582 55.793 233.625 55.2969 233.625 54.7656ZM242.672 43V61H239.285V43H242.672ZM244.922 54.7891V54.543C244.922 53.6133 245.055 52.7578 245.32 51.9766C245.586 51.1875 245.973 50.5039 246.48 49.9258C246.988 49.3477 247.613 48.8984 248.355 48.5781C249.098 48.25 249.949 48.0859 250.91 48.0859C251.871 48.0859 252.727 48.25 253.477 48.5781C254.227 48.8984 254.855 49.3477 255.363 49.9258C255.879 50.5039 256.27 51.1875 256.535 51.9766C256.801 52.7578 256.934 53.6133 256.934 54.543V54.7891C256.934 55.7109 256.801 56.5664 256.535 57.3555C256.27 58.1367 255.879 58.8203 255.363 59.4062C254.855 59.9844 254.23 60.4336 253.488 60.7539C252.746 61.0742 251.895 61.2344 250.934 61.2344C249.973 61.2344 249.117 61.0742 248.367 60.7539C247.625 60.4336 246.996 59.9844 246.48 59.4062C245.973 58.8203 245.586 58.1367 245.32 57.3555C245.055 56.5664 244.922 55.7109 244.922 54.7891ZM248.297 54.543V54.7891C248.297 55.3203 248.344 55.8164 248.438 56.2773C248.531 56.7383 248.68 57.1445 248.883 57.4961C249.094 57.8398 249.367 58.1094 249.703 58.3047C250.039 58.5 250.449 58.5977 250.934 58.5977C251.402 58.5977 251.805 58.5 252.141 58.3047C252.477 58.1094 252.746 57.8398 252.949 57.4961C253.152 57.1445 253.301 56.7383 253.395 56.2773C253.496 55.8164 253.547 55.3203 253.547 54.7891V54.543C253.547 54.0273 253.496 53.543 253.395 53.0898C253.301 52.6289 253.148 52.2227 252.938 51.8711C252.734 51.5117 252.465 51.2305 252.129 51.0273C251.793 50.8242 251.387 50.7227 250.91 50.7227C250.434 50.7227 250.027 50.8242 249.691 51.0273C249.363 51.2305 249.094 51.5117 248.883 51.8711C248.68 52.2227 248.531 52.6289 248.438 53.0898C248.344 53.543 248.297 54.0273 248.297 54.543ZM262.383 51.0859V61H259.008V48.3203H262.184L262.383 51.0859ZM266.203 48.2383L266.145 51.3672C265.98 51.3438 265.781 51.3242 265.547 51.3086C265.32 51.2852 265.113 51.2734 264.926 51.2734C264.449 51.2734 264.035 51.3359 263.684 51.4609C263.34 51.5781 263.051 51.7539 262.816 51.9883C262.59 52.2227 262.418 52.5078 262.301 52.8438C262.191 53.1797 262.129 53.5625 262.113 53.9922L261.434 53.7812C261.434 52.9609 261.516 52.207 261.68 51.5195C261.844 50.8242 262.082 50.2188 262.395 49.7031C262.715 49.1875 263.105 48.7891 263.566 48.5078C264.027 48.2266 264.555 48.0859 265.148 48.0859C265.336 48.0859 265.527 48.1016 265.723 48.1328C265.918 48.1562 266.078 48.1914 266.203 48.2383ZM273.398 61.2344C272.414 61.2344 271.531 61.0781 270.75 60.7656C269.969 60.4453 269.305 60.0039 268.758 59.4414C268.219 58.8789 267.805 58.2266 267.516 57.4844C267.227 56.7344 267.082 55.9375 267.082 55.0938V54.625C267.082 53.6641 267.219 52.7852 267.492 51.9883C267.766 51.1914 268.156 50.5 268.664 49.9141C269.18 49.3281 269.805 48.8789 270.539 48.5664C271.273 48.2461 272.102 48.0859 273.023 48.0859C273.922 48.0859 274.719 48.2344 275.414 48.5312C276.109 48.8281 276.691 49.25 277.16 49.7969C277.637 50.3438 277.996 51 278.238 51.7656C278.48 52.5234 278.602 53.3672 278.602 54.2969V55.7031H268.523V53.4531H275.285V53.1953C275.285 52.7266 275.199 52.3086 275.027 51.9414C274.863 51.5664 274.613 51.2695 274.277 51.0508C273.941 50.832 273.512 50.7227 272.988 50.7227C272.543 50.7227 272.16 50.8203 271.84 51.0156C271.52 51.2109 271.258 51.4844 271.055 51.8359C270.859 52.1875 270.711 52.6016 270.609 53.0781C270.516 53.5469 270.469 54.0625 270.469 54.625V55.0938C270.469 55.6016 270.539 56.0703 270.68 56.5C270.828 56.9297 271.035 57.3008 271.301 57.6133C271.574 57.9258 271.902 58.168 272.285 58.3398C272.676 58.5117 273.117 58.5977 273.609 58.5977C274.219 58.5977 274.785 58.4805 275.309 58.2461C275.84 58.0039 276.297 57.6406 276.68 57.1562L278.32 58.9375C278.055 59.3203 277.691 59.6875 277.23 60.0391C276.777 60.3906 276.23 60.6797 275.59 60.9062C274.949 61.125 274.219 61.2344 273.398 61.2344ZM283.898 51.0859V61H280.523V48.3203H283.699L283.898 51.0859ZM287.719 48.2383L287.66 51.3672C287.496 51.3438 287.297 51.3242 287.062 51.3086C286.836 51.2852 286.629 51.2734 286.441 51.2734C285.965 51.2734 285.551 51.3359 285.199 51.4609C284.855 51.5781 284.566 51.7539 284.332 51.9883C284.105 52.2227 283.934 52.5078 283.816 52.8438C283.707 53.1797 283.645 53.5625 283.629 53.9922L282.949 53.7812C282.949 52.9609 283.031 52.207 283.195 51.5195C283.359 50.8242 283.598 50.2188 283.91 49.7031C284.23 49.1875 284.621 48.7891 285.082 48.5078C285.543 48.2266 286.07 48.0859 286.664 48.0859C286.852 48.0859 287.043 48.1016 287.238 48.1328C287.434 48.1562 287.594 48.1914 287.719 48.2383Z" fill="#888888"/>
<path d="M112.125 84.875V119H103.898V84.875H112.125ZM122.391 84.875V91.2266H93.8672V84.875H122.391ZM135.68 119.469C133.617 119.469 131.773 119.148 130.148 118.508C128.523 117.852 127.148 116.953 126.023 115.812C124.914 114.672 124.062 113.359 123.469 111.875C122.891 110.391 122.602 108.82 122.602 107.164V106.273C122.602 104.414 122.859 102.695 123.375 101.117C123.891 99.5234 124.656 98.1328 125.672 96.9453C126.688 95.7578 127.961 94.8359 129.492 94.1797C131.023 93.5078 132.805 93.1719 134.836 93.1719C136.633 93.1719 138.242 93.4609 139.664 94.0391C141.086 94.6172 142.289 95.4453 143.273 96.5234C144.273 97.6016 145.031 98.9062 145.547 100.438C146.078 101.969 146.344 103.688 146.344 105.594V108.805H125.625V103.859H138.633V103.25C138.648 102.406 138.5 101.688 138.188 101.094C137.891 100.5 137.453 100.047 136.875 99.7344C136.297 99.4219 135.594 99.2656 134.766 99.2656C133.906 99.2656 133.195 99.4531 132.633 99.8281C132.086 100.203 131.656 100.719 131.344 101.375C131.047 102.016 130.836 102.758 130.711 103.602C130.586 104.445 130.523 105.336 130.523 106.273V107.164C130.523 108.102 130.648 108.953 130.898 109.719C131.164 110.484 131.539 111.141 132.023 111.688C132.523 112.219 133.117 112.633 133.805 112.93C134.508 113.227 135.305 113.375 136.195 113.375C137.273 113.375 138.336 113.172 139.383 112.766C140.43 112.359 141.328 111.688 142.078 110.75L145.664 115.016C145.148 115.75 144.414 116.461 143.461 117.148C142.523 117.836 141.398 118.398 140.086 118.836C138.773 119.258 137.305 119.469 135.68 119.469ZM160.266 113.375C161 113.375 161.625 113.242 162.141 112.977C162.672 112.695 163.07 112.305 163.336 111.805C163.617 111.289 163.75 110.672 163.734 109.953H171.164C171.18 111.859 170.711 113.531 169.758 114.969C168.82 116.391 167.539 117.5 165.914 118.297C164.305 119.078 162.484 119.469 160.453 119.469C158.469 119.469 156.734 119.148 155.25 118.508C153.766 117.852 152.523 116.945 151.523 115.789C150.539 114.617 149.797 113.25 149.297 111.688C148.812 110.125 148.57 108.43 148.57 106.602V106.062C148.57 104.234 148.812 102.539 149.297 100.977C149.797 99.3984 150.539 98.0312 151.523 96.875C152.523 95.7031 153.758 94.7969 155.227 94.1562C156.711 93.5 158.438 93.1719 160.406 93.1719C162.516 93.1719 164.375 93.5703 165.984 94.3672C167.609 95.1641 168.883 96.3203 169.805 97.8359C170.727 99.3516 171.18 101.188 171.164 103.344H163.734C163.75 102.578 163.633 101.891 163.383 101.281C163.133 100.672 162.742 100.188 162.211 99.8281C161.695 99.4531 161.031 99.2656 160.219 99.2656C159.406 99.2656 158.75 99.4453 158.25 99.8047C157.75 100.164 157.367 100.664 157.102 101.305C156.852 101.93 156.68 102.648 156.586 103.461C156.508 104.273 156.469 105.141 156.469 106.062V106.602C156.469 107.539 156.508 108.422 156.586 109.25C156.68 110.062 156.859 110.781 157.125 111.406C157.391 112.016 157.773 112.5 158.273 112.859C158.773 113.203 159.438 113.375 160.266 113.375ZM182.273 83V119H174.375V83H182.273ZM181.336 105.453L179.484 105.5C179.484 103.719 179.703 102.078 180.141 100.578C180.578 99.0781 181.203 97.7734 182.016 96.6641C182.828 95.5547 183.805 94.6953 184.945 94.0859C186.086 93.4766 187.352 93.1719 188.742 93.1719C189.992 93.1719 191.133 93.3516 192.164 93.7109C193.211 94.0703 194.109 94.6484 194.859 95.4453C195.625 96.2422 196.211 97.2812 196.617 98.5625C197.039 99.8438 197.25 101.406 197.25 103.25V119H189.305V103.203C189.305 102.172 189.156 101.375 188.859 100.812C188.578 100.234 188.172 99.8359 187.641 99.6172C187.109 99.3828 186.461 99.2656 185.695 99.2656C184.773 99.2656 184.023 99.4219 183.445 99.7344C182.867 100.047 182.422 100.484 182.109 101.047C181.812 101.594 181.609 102.242 181.5 102.992C181.391 103.742 181.336 104.562 181.336 105.453ZM231.539 109.93C231.539 109.398 231.461 108.922 231.305 108.5C231.148 108.062 230.859 107.656 230.438 107.281C230.016 106.906 229.406 106.531 228.609 106.156C227.828 105.766 226.797 105.359 225.516 104.938C224.016 104.438 222.57 103.875 221.18 103.25C219.789 102.609 218.547 101.867 217.453 101.023C216.359 100.164 215.492 99.1641 214.852 98.0234C214.211 96.8672 213.891 95.5234 213.891 93.9922C213.891 92.5234 214.219 91.2031 214.875 90.0312C215.531 88.8438 216.445 87.8359 217.617 87.0078C218.805 86.1641 220.195 85.5234 221.789 85.0859C223.383 84.6328 225.125 84.4062 227.016 84.4062C229.516 84.4062 231.719 84.8438 233.625 85.7188C235.547 86.5781 237.047 87.8047 238.125 89.3984C239.219 90.9766 239.766 92.8438 239.766 95H231.586C231.586 94.1406 231.406 93.3828 231.047 92.7266C230.703 92.0703 230.18 91.5547 229.477 91.1797C228.773 90.8047 227.891 90.6172 226.828 90.6172C225.797 90.6172 224.93 90.7734 224.227 91.0859C223.523 91.3984 222.992 91.8203 222.633 92.3516C222.273 92.8672 222.094 93.4375 222.094 94.0625C222.094 94.5781 222.234 95.0469 222.516 95.4688C222.812 95.875 223.227 96.2578 223.758 96.6172C224.305 96.9766 224.961 97.3203 225.727 97.6484C226.508 97.9766 227.383 98.2969 228.352 98.6094C230.164 99.1875 231.773 99.8359 233.18 100.555C234.602 101.258 235.797 102.062 236.766 102.969C237.75 103.859 238.492 104.875 238.992 106.016C239.508 107.156 239.766 108.445 239.766 109.883C239.766 111.414 239.469 112.773 238.875 113.961C238.281 115.148 237.43 116.156 236.32 116.984C235.211 117.797 233.883 118.414 232.336 118.836C230.789 119.258 229.062 119.469 227.156 119.469C225.406 119.469 223.68 119.25 221.977 118.812C220.289 118.359 218.758 117.672 217.383 116.75C216.008 115.812 214.906 114.617 214.078 113.164C213.266 111.695 212.859 109.953 212.859 107.938H221.109C221.109 108.938 221.242 109.781 221.508 110.469C221.773 111.156 222.164 111.711 222.68 112.133C223.195 112.539 223.828 112.836 224.578 113.023C225.328 113.195 226.188 113.281 227.156 113.281C228.203 113.281 229.047 113.133 229.688 112.836C230.328 112.523 230.797 112.117 231.094 111.617C231.391 111.102 231.539 110.539 231.539 109.93ZM256.992 93.6406V99.125H241.711V93.6406H256.992ZM244.922 87.3359H252.82V110.727C252.82 111.398 252.898 111.922 253.055 112.297C253.211 112.656 253.477 112.914 253.852 113.07C254.242 113.211 254.758 113.281 255.398 113.281C255.852 113.281 256.227 113.273 256.523 113.258C256.82 113.227 257.102 113.188 257.367 113.141V118.789C256.695 119.008 255.992 119.172 255.258 119.281C254.523 119.406 253.742 119.469 252.914 119.469C251.227 119.469 249.781 119.203 248.578 118.672C247.391 118.141 246.484 117.305 245.859 116.164C245.234 115.023 244.922 113.539 244.922 111.711V87.3359ZM273.305 112.625V102.172C273.305 101.453 273.203 100.836 273 100.32C272.797 99.8047 272.477 99.4062 272.039 99.125C271.602 98.8281 271.016 98.6797 270.281 98.6797C269.688 98.6797 269.18 98.7812 268.758 98.9844C268.336 99.1875 268.016 99.4922 267.797 99.8984C267.578 100.305 267.469 100.82 267.469 101.445H259.57C259.57 100.273 259.828 99.1875 260.344 98.1875C260.875 97.1719 261.625 96.2891 262.594 95.5391C263.578 94.7891 264.75 94.2109 266.109 93.8047C267.484 93.3828 269.016 93.1719 270.703 93.1719C272.719 93.1719 274.516 93.5078 276.094 94.1797C277.688 94.8516 278.945 95.8594 279.867 97.2031C280.789 98.5312 281.25 100.203 281.25 102.219V112.602C281.25 114.258 281.344 115.516 281.531 116.375C281.719 117.219 281.984 117.961 282.328 118.602V119H274.406C274.031 118.219 273.75 117.266 273.562 116.141C273.391 115 273.305 113.828 273.305 112.625ZM274.266 103.508L274.312 107.727H270.82C270.086 107.727 269.461 107.828 268.945 108.031C268.445 108.234 268.039 108.516 267.727 108.875C267.43 109.219 267.211 109.609 267.07 110.047C266.945 110.484 266.883 110.945 266.883 111.43C266.883 111.898 266.992 112.32 267.211 112.695C267.445 113.055 267.758 113.336 268.148 113.539C268.539 113.742 268.977 113.844 269.461 113.844C270.336 113.844 271.078 113.68 271.688 113.352C272.312 113.008 272.789 112.594 273.117 112.109C273.445 111.625 273.609 111.172 273.609 110.75L275.344 113.984C275.031 114.609 274.672 115.242 274.266 115.883C273.875 116.523 273.383 117.117 272.789 117.664C272.211 118.195 271.5 118.633 270.656 118.977C269.812 119.305 268.789 119.469 267.586 119.469C266.023 119.469 264.586 119.148 263.273 118.508C261.977 117.867 260.938 116.977 260.156 115.836C259.375 114.68 258.984 113.352 258.984 111.852C258.984 110.539 259.219 109.367 259.688 108.336C260.172 107.305 260.898 106.43 261.867 105.711C262.836 104.992 264.07 104.445 265.57 104.07C267.07 103.695 268.836 103.508 270.867 103.508H274.266ZM296.344 113.375C297.078 113.375 297.703 113.242 298.219 112.977C298.75 112.695 299.148 112.305 299.414 111.805C299.695 111.289 299.828 110.672 299.812 109.953H307.242C307.258 111.859 306.789 113.531 305.836 114.969C304.898 116.391 303.617 117.5 301.992 118.297C300.383 119.078 298.562 119.469 296.531 119.469C294.547 119.469 292.812 119.148 291.328 118.508C289.844 117.852 288.602 116.945 287.602 115.789C286.617 114.617 285.875 113.25 285.375 111.688C284.891 110.125 284.648 108.43 284.648 106.602V106.062C284.648 104.234 284.891 102.539 285.375 100.977C285.875 99.3984 286.617 98.0312 287.602 96.875C288.602 95.7031 289.836 94.7969 291.305 94.1562C292.789 93.5 294.516 93.1719 296.484 93.1719C298.594 93.1719 300.453 93.5703 302.062 94.3672C303.688 95.1641 304.961 96.3203 305.883 97.8359C306.805 99.3516 307.258 101.188 307.242 103.344H299.812C299.828 102.578 299.711 101.891 299.461 101.281C299.211 100.672 298.82 100.188 298.289 99.8281C297.773 99.4531 297.109 99.2656 296.297 99.2656C295.484 99.2656 294.828 99.4453 294.328 99.8047C293.828 100.164 293.445 100.664 293.18 101.305C292.93 101.93 292.758 102.648 292.664 103.461C292.586 104.273 292.547 105.141 292.547 106.062V106.602C292.547 107.539 292.586 108.422 292.664 109.25C292.758 110.062 292.938 110.781 293.203 111.406C293.469 112.016 293.852 112.5 294.352 112.859C294.852 113.203 295.516 113.375 296.344 113.375ZM318.586 82.9766V119H310.688V82.9766H318.586ZM334.805 93.6406L323.789 106.555L318.023 112.32L314.578 107.305L319.383 101.047L325.336 93.6406H334.805ZM326.344 119L319.57 107.445L325.406 103.297L335.391 119H326.344ZM350.156 111.875C350.156 111.438 350.008 111.062 349.711 110.75C349.43 110.422 348.93 110.125 348.211 109.859C347.492 109.578 346.484 109.297 345.188 109.016C343.953 108.75 342.789 108.398 341.695 107.961C340.617 107.523 339.672 106.992 338.859 106.367C338.047 105.742 337.406 105 336.938 104.141C336.484 103.281 336.258 102.297 336.258 101.188C336.258 100.109 336.484 99.0938 336.938 98.1406C337.406 97.1719 338.086 96.3203 338.977 95.5859C339.883 94.8359 340.984 94.25 342.281 93.8281C343.578 93.3906 345.055 93.1719 346.711 93.1719C348.992 93.1719 350.961 93.5234 352.617 94.2266C354.273 94.9141 355.547 95.8828 356.438 97.1328C357.344 98.3672 357.797 99.7969 357.797 101.422H349.898C349.898 100.781 349.789 100.234 349.57 99.7812C349.367 99.3281 349.031 98.9844 348.562 98.75C348.094 98.5 347.469 98.375 346.688 98.375C346.141 98.375 345.641 98.4766 345.188 98.6797C344.75 98.8828 344.398 99.1641 344.133 99.5234C343.867 99.8828 343.734 100.305 343.734 100.789C343.734 101.133 343.812 101.445 343.969 101.727C344.141 101.992 344.398 102.242 344.742 102.477C345.086 102.695 345.523 102.898 346.055 103.086C346.586 103.258 347.227 103.414 347.977 103.555C349.68 103.867 351.273 104.312 352.758 104.891C354.242 105.469 355.445 106.289 356.367 107.352C357.305 108.414 357.773 109.844 357.773 111.641C357.773 112.766 357.516 113.805 357 114.758C356.484 115.695 355.742 116.523 354.773 117.242C353.805 117.945 352.641 118.492 351.281 118.883C349.922 119.273 348.391 119.469 346.688 119.469C344.266 119.469 342.219 119.039 340.547 118.18C338.875 117.305 337.609 116.211 336.75 114.898C335.906 113.57 335.484 112.227 335.484 110.867H342.844C342.875 111.648 343.062 112.289 343.406 112.789C343.766 113.289 344.242 113.656 344.836 113.891C345.43 114.125 346.117 114.242 346.898 114.242C347.617 114.242 348.211 114.141 348.68 113.938C349.164 113.734 349.531 113.461 349.781 113.117C350.031 112.758 350.156 112.344 350.156 111.875Z" fill="black"/>
<path d="M1134 0H1348C1356.28 0 1363 6.71573 1363 15V148C1363 156.284 1356.28 163 1348 163H1134V0Z" fill="#04D9FF"/>
<path fill-rule="evenodd" clip-rule="evenodd" d="M1219.98 53C1219.85 53 1219.73 53.0527 1219.64 53.1464C1219.55 53.2402 1219.5 53.3674 1219.5 53.5V109.5C1219.5 109.633 1219.55 109.76 1219.64 109.854C1219.73 109.947 1219.85 110 1219.98 110H1277.02C1277.15 110 1277.27 109.947 1277.36 109.854C1277.45 109.76 1277.5 109.633 1277.5 109.5V64C1277.5 63.8674 1277.45 63.7402 1277.36 63.6464C1277.27 63.5527 1277.15 63.5 1277.02 63.5H1248.5C1247.65 63.5 1246.84 63.1045 1246.29 62.4206L1238.77 53H1219.98ZM1215.58 48.9038C1216.74 47.6848 1218.33 47 1219.98 47H1240.11C1240.97 47 1241.77 47.3955 1242.32 48.0794L1249.85 57.5H1277.02C1278.67 57.5 1280.26 58.1848 1281.42 59.4038C1282.59 60.6228 1283.25 62.2761 1283.25 64V109.5C1283.25 111.224 1282.59 112.877 1281.42 114.096C1280.26 115.315 1278.67 116 1277.02 116H1219.98C1218.33 116 1216.74 115.315 1215.58 114.096C1214.41 112.877 1213.75 111.224 1213.75 109.5V53.5C1213.75 51.7761 1214.41 50.1228 1215.58 48.9038Z" fill="white"/>
<path fill-rule="evenodd" clip-rule="evenodd" d="M1244.16 75.5251C1245.47 76.892 1245.47 79.108 1244.16 80.4749L1238.15 86.75L1244.16 93.0251C1245.47 94.392 1245.47 96.608 1244.16 97.9749C1242.85 99.3417 1240.73 99.3417 1239.42 97.9749L1231.03 89.2249C1229.72 87.858 1229.72 85.642 1231.03 84.2751L1239.42 75.5251C1240.73 74.1583 1242.85 74.1583 1244.16 75.5251Z" fill="white"/>
<path fill-rule="evenodd" clip-rule="evenodd" d="M1252.12 97.9749C1250.81 96.608 1250.81 94.392 1252.12 93.0251L1258.13 86.75L1252.12 80.4749C1250.81 79.108 1250.81 76.892 1252.12 75.5251C1253.43 74.1583 1255.55 74.1583 1256.86 75.5251L1265.25 84.2751C1266.56 85.642 1266.56 87.858 1265.25 89.2249L1256.86 97.9749C1255.55 99.3417 1253.43 99.3417 1252.12 97.9749Z" fill="white"/>
</svg>
