<svg width="1363" height="163" viewBox="0 0 1363 163" fill="none" xmlns="http://www.w3.org/2000/svg">
<path d="M0 15C0 6.71573 6.71573 0 15 0H37V163H15C6.71573 163 0 156.284 0 148V15Z" fill="#424242"/>
<rect width="1097" height="163" transform="translate(37)" fill="#F0F0F0"/>
<path d="M101.906 53.9219L94.3945 51.2383V48.0859L104.602 52.375V54.6367L101.906 53.9219ZM94.3945 56.1719L101.918 53.4297L104.602 52.7852V55.0352L94.3945 59.3242V56.1719ZM122.789 55.3398H126.293C126.223 56.4883 125.906 57.5078 125.344 58.3984C124.789 59.2891 124.012 59.9844 123.012 60.4844C122.02 60.9844 120.824 61.2344 119.426 61.2344C118.332 61.2344 117.352 61.0469 116.484 60.6719C115.617 60.2891 114.875 59.7422 114.258 59.0312C113.648 58.3203 113.184 57.4609 112.863 56.4531C112.543 55.4453 112.383 54.3164 112.383 53.0664V51.8828C112.383 50.6328 112.547 49.5039 112.875 48.4961C113.211 47.4805 113.688 46.6172 114.305 45.9062C114.93 45.1953 115.676 44.6484 116.543 44.2656C117.41 43.8828 118.379 43.6914 119.449 43.6914C120.871 43.6914 122.07 43.9492 123.047 44.4648C124.031 44.9805 124.793 45.6914 125.332 46.5977C125.879 47.5039 126.207 48.5352 126.316 49.6914H122.801C122.762 49.0039 122.625 48.4219 122.391 47.9453C122.156 47.4609 121.801 47.0977 121.324 46.8555C120.855 46.6055 120.23 46.4805 119.449 46.4805C118.863 46.4805 118.352 46.5898 117.914 46.8086C117.477 47.0273 117.109 47.3594 116.812 47.8047C116.516 48.25 116.293 48.8125 116.145 49.4922C116.004 50.1641 115.934 50.9531 115.934 51.8594V53.0664C115.934 53.9492 116 54.7266 116.133 55.3984C116.266 56.0625 116.469 56.625 116.742 57.0859C117.023 57.5391 117.383 57.8828 117.82 58.1172C118.266 58.3438 118.801 58.457 119.426 58.457C120.16 58.457 120.766 58.3398 121.242 58.1055C121.719 57.8711 122.082 57.5234 122.332 57.0625C122.59 56.6016 122.742 56.0273 122.789 55.3398ZM127.852 54.7891V54.543C127.852 53.6133 127.984 52.7578 128.25 51.9766C128.516 51.1875 128.902 50.5039 129.41 49.9258C129.918 49.3477 130.543 48.8984 131.285 48.5781C132.027 48.25 132.879 48.0859 133.84 48.0859C134.801 48.0859 135.656 48.25 136.406 48.5781C137.156 48.8984 137.785 49.3477 138.293 49.9258C138.809 50.5039 139.199 51.1875 139.465 51.9766C139.73 52.7578 139.863 53.6133 139.863 54.543V54.7891C139.863 55.7109 139.73 56.5664 139.465 57.3555C139.199 58.1367 138.809 58.8203 138.293 59.4062C137.785 59.9844 137.16 60.4336 136.418 60.7539C135.676 61.0742 134.824 61.2344 133.863 61.2344C132.902 61.2344 132.047 61.0742 131.297 60.7539C130.555 60.4336 129.926 59.9844 129.41 59.4062C128.902 58.8203 128.516 58.1367 128.25 57.3555C127.984 56.5664 127.852 55.7109 127.852 54.7891ZM131.227 54.543V54.7891C131.227 55.3203 131.273 55.8164 131.367 56.2773C131.461 56.7383 131.609 57.1445 131.812 57.4961C132.023 57.8398 132.297 58.1094 132.633 58.3047C132.969 58.5 133.379 58.5977 133.863 58.5977C134.332 58.5977 134.734 58.5 135.07 58.3047C135.406 58.1094 135.676 57.8398 135.879 57.4961C136.082 57.1445 136.23 56.7383 136.324 56.2773C136.426 55.8164 136.477 55.3203 136.477 54.7891V54.543C136.477 54.0273 136.426 53.543 136.324 53.0898C136.23 52.6289 136.078 52.2227 135.867 51.8711C135.664 51.5117 135.395 51.2305 135.059 51.0273C134.723 50.8242 134.316 50.7227 133.84 50.7227C133.363 50.7227 132.957 50.8242 132.621 51.0273C132.293 51.2305 132.023 51.5117 131.812 51.8711C131.609 52.2227 131.461 52.6289 131.367 53.0898C131.273 53.543 131.227 54.0273 131.227 54.543ZM148.793 57.4961C148.793 57.2539 148.723 57.0352 148.582 56.8398C148.441 56.6445 148.18 56.4648 147.797 56.3008C147.422 56.1289 146.879 55.9727 146.168 55.832C145.527 55.6914 144.93 55.5156 144.375 55.3047C143.828 55.0859 143.352 54.8242 142.945 54.5195C142.547 54.2148 142.234 53.8555 142.008 53.4414C141.781 53.0195 141.668 52.5391 141.668 52C141.668 51.4688 141.781 50.9688 142.008 50.5C142.242 50.0312 142.574 49.6172 143.004 49.2578C143.441 48.8906 143.973 48.6055 144.598 48.4023C145.23 48.1914 145.941 48.0859 146.73 48.0859C147.832 48.0859 148.777 48.2617 149.566 48.6133C150.363 48.9648 150.973 49.4492 151.395 50.0664C151.824 50.6758 152.039 51.3711 152.039 52.1523H148.664C148.664 51.8242 148.594 51.5312 148.453 51.2734C148.32 51.0078 148.109 50.8008 147.82 50.6523C147.539 50.4961 147.172 50.418 146.719 50.418C146.344 50.418 146.02 50.4844 145.746 50.6172C145.473 50.7422 145.262 50.9141 145.113 51.1328C144.973 51.3438 144.902 51.5781 144.902 51.8359C144.902 52.0312 144.941 52.207 145.02 52.3633C145.105 52.5117 145.242 52.6484 145.43 52.7734C145.617 52.8984 145.859 53.0156 146.156 53.125C146.461 53.2266 146.836 53.3203 147.281 53.4062C148.195 53.5938 149.012 53.8398 149.73 54.1445C150.449 54.4414 151.02 54.8477 151.441 55.3633C151.863 55.8711 152.074 56.5391 152.074 57.3672C152.074 57.9297 151.949 58.4453 151.699 58.9141C151.449 59.3828 151.09 59.793 150.621 60.1445C150.152 60.4883 149.59 60.7578 148.934 60.9531C148.285 61.1406 147.555 61.2344 146.742 61.2344C145.562 61.2344 144.562 61.0234 143.742 60.6016C142.93 60.1797 142.312 59.6445 141.891 58.9961C141.477 58.3398 141.27 57.668 141.27 56.9805H144.469C144.484 57.4414 144.602 57.8125 144.82 58.0938C145.047 58.375 145.332 58.5781 145.676 58.7031C146.027 58.8281 146.406 58.8906 146.812 58.8906C147.25 58.8906 147.613 58.832 147.902 58.7148C148.191 58.5898 148.41 58.4258 148.559 58.2227C148.715 58.0117 148.793 57.7695 148.793 57.4961ZM157.641 50.9453V61H154.254V48.3203H157.43L157.641 50.9453ZM157.172 54.2148H156.234C156.234 53.332 156.34 52.5195 156.551 51.7773C156.77 51.0273 157.086 50.3789 157.5 49.832C157.922 49.2773 158.441 48.8477 159.059 48.543C159.676 48.2383 160.391 48.0859 161.203 48.0859C161.766 48.0859 162.281 48.1719 162.75 48.3438C163.219 48.5078 163.621 48.7695 163.957 49.1289C164.301 49.4805 164.566 49.9414 164.754 50.5117C164.941 51.0742 165.035 51.75 165.035 52.5391V61H161.66V52.9141C161.66 52.3359 161.582 51.8906 161.426 51.5781C161.27 51.2656 161.047 51.0469 160.758 50.9219C160.477 50.7969 160.137 50.7344 159.738 50.7344C159.301 50.7344 158.918 50.8242 158.59 51.0039C158.27 51.1836 158.004 51.4336 157.793 51.7539C157.582 52.0664 157.426 52.4336 157.324 52.8555C157.223 53.2773 157.172 53.7305 157.172 54.2148ZM164.719 53.8281L163.512 53.9805C163.512 53.1523 163.613 52.3828 163.816 51.6719C164.027 50.9609 164.336 50.3359 164.742 49.7969C165.156 49.2578 165.668 48.8398 166.277 48.543C166.887 48.2383 167.59 48.0859 168.387 48.0859C168.996 48.0859 169.551 48.1758 170.051 48.3555C170.551 48.5273 170.977 48.8047 171.328 49.1875C171.688 49.5625 171.961 50.0547 172.148 50.6641C172.344 51.2734 172.441 52.0195 172.441 52.9023V61H169.055V52.9023C169.055 52.3164 168.977 51.8711 168.82 51.5664C168.672 51.2539 168.453 51.0391 168.164 50.9219C167.883 50.7969 167.547 50.7344 167.156 50.7344C166.75 50.7344 166.395 50.8164 166.09 50.9805C165.785 51.1367 165.531 51.3555 165.328 51.6367C165.125 51.918 164.973 52.2461 164.871 52.6211C164.77 52.9883 164.719 53.3906 164.719 53.8281ZM178.617 48.3203V61H175.23V48.3203H178.617ZM175.02 45.0156C175.02 44.5234 175.191 44.1172 175.535 43.7969C175.879 43.4766 176.34 43.3164 176.918 43.3164C177.488 43.3164 177.945 43.4766 178.289 43.7969C178.641 44.1172 178.816 44.5234 178.816 45.0156C178.816 45.5078 178.641 45.9141 178.289 46.2344C177.945 46.5547 177.488 46.7148 176.918 46.7148C176.34 46.7148 175.879 46.5547 175.535 46.2344C175.191 45.9141 175.02 45.5078 175.02 45.0156ZM186.645 58.5977C187.059 58.5977 187.426 58.5195 187.746 58.3633C188.066 58.1992 188.316 57.9727 188.496 57.6836C188.684 57.3867 188.781 57.0391 188.789 56.6406H191.965C191.957 57.5312 191.719 58.3242 191.25 59.0195C190.781 59.707 190.152 60.25 189.363 60.6484C188.574 61.0391 187.691 61.2344 186.715 61.2344C185.73 61.2344 184.871 61.0703 184.137 60.7422C183.41 60.4141 182.805 59.9609 182.32 59.3828C181.836 58.7969 181.473 58.1172 181.23 57.3438C180.988 56.5625 180.867 55.7266 180.867 54.8359V54.4961C180.867 53.5977 180.988 52.7617 181.23 51.9883C181.473 51.207 181.836 50.5273 182.32 49.9492C182.805 49.3633 183.41 48.9062 184.137 48.5781C184.863 48.25 185.715 48.0859 186.691 48.0859C187.73 48.0859 188.641 48.2852 189.422 48.6836C190.211 49.082 190.828 49.6523 191.273 50.3945C191.727 51.1289 191.957 52 191.965 53.0078H188.789C188.781 52.5859 188.691 52.2031 188.52 51.8594C188.355 51.5156 188.113 51.2422 187.793 51.0391C187.48 50.8281 187.094 50.7227 186.633 50.7227C186.141 50.7227 185.738 50.8281 185.426 51.0391C185.113 51.2422 184.871 51.5234 184.699 51.8828C184.527 52.2344 184.406 52.6367 184.336 53.0898C184.273 53.5352 184.242 54.0039 184.242 54.4961V54.8359C184.242 55.3281 184.273 55.8008 184.336 56.2539C184.398 56.707 184.516 57.1094 184.688 57.4609C184.867 57.8125 185.113 58.0898 185.426 58.293C185.738 58.4961 186.145 58.5977 186.645 58.5977ZM211.559 58.2578V61H202.477V58.2578H211.559ZM203.625 43.9375V61H200.109V43.9375H203.625ZM210.375 50.8867V53.5586H202.477V50.8867H210.375ZM211.547 43.9375V46.6914H202.477V43.9375H211.547ZM216.117 48.3203L218.215 52.1758L220.371 48.3203H223.969L220.383 54.5195L224.133 61H220.523L218.238 56.9219L215.953 61H212.344L216.094 54.5195L212.508 48.3203H216.117ZM228.984 50.7578V65.875H225.609V48.3203H228.738L228.984 50.7578ZM237.012 54.5195V54.7656C237.012 55.6875 236.902 56.543 236.684 57.332C236.473 58.1211 236.16 58.8086 235.746 59.3945C235.332 59.9727 234.816 60.4258 234.199 60.7539C233.59 61.0742 232.887 61.2344 232.09 61.2344C231.316 61.2344 230.645 61.0781 230.074 60.7656C229.504 60.4531 229.023 60.0156 228.633 59.4531C228.25 58.8828 227.941 58.2227 227.707 57.4727C227.473 56.7227 227.293 55.918 227.168 55.0586V54.4141C227.293 53.4922 227.473 52.6484 227.707 51.8828C227.941 51.1094 228.25 50.4414 228.633 49.8789C229.023 49.3086 229.5 48.8672 230.062 48.5547C230.633 48.2422 231.301 48.0859 232.066 48.0859C232.871 48.0859 233.578 48.2383 234.188 48.543C234.805 48.8477 235.32 49.2852 235.734 49.8555C236.156 50.4258 236.473 51.1055 236.684 51.8945C236.902 52.6836 237.012 53.5586 237.012 54.5195ZM233.625 54.7656V54.5195C233.625 53.9805 233.578 53.4844 233.484 53.0312C233.398 52.5703 233.258 52.168 233.062 51.8242C232.875 51.4805 232.625 51.2148 232.312 51.0273C232.008 50.832 231.637 50.7344 231.199 50.7344C230.738 50.7344 230.344 50.8086 230.016 50.957C229.695 51.1055 229.434 51.3203 229.23 51.6016C229.027 51.8828 228.875 52.2188 228.773 52.6094C228.672 53 228.609 53.4414 228.586 53.9336V55.5625C228.625 56.1406 228.734 56.6602 228.914 57.1211C229.094 57.5742 229.371 57.9336 229.746 58.1992C230.121 58.4648 230.613 58.5977 231.223 58.5977C231.668 58.5977 232.043 58.5 232.348 58.3047C232.652 58.1016 232.898 57.8242 233.086 57.4727C233.281 57.1211 233.418 56.7148 233.496 56.2539C233.582 55.793 233.625 55.2969 233.625 54.7656ZM242.672 43V61H239.285V43H242.672ZM244.922 54.7891V54.543C244.922 53.6133 245.055 52.7578 245.32 51.9766C245.586 51.1875 245.973 50.5039 246.48 49.9258C246.988 49.3477 247.613 48.8984 248.355 48.5781C249.098 48.25 249.949 48.0859 250.91 48.0859C251.871 48.0859 252.727 48.25 253.477 48.5781C254.227 48.8984 254.855 49.3477 255.363 49.9258C255.879 50.5039 256.27 51.1875 256.535 51.9766C256.801 52.7578 256.934 53.6133 256.934 54.543V54.7891C256.934 55.7109 256.801 56.5664 256.535 57.3555C256.27 58.1367 255.879 58.8203 255.363 59.4062C254.855 59.9844 254.23 60.4336 253.488 60.7539C252.746 61.0742 251.895 61.2344 250.934 61.2344C249.973 61.2344 249.117 61.0742 248.367 60.7539C247.625 60.4336 246.996 59.9844 246.48 59.4062C245.973 58.8203 245.586 58.1367 245.32 57.3555C245.055 56.5664 244.922 55.7109 244.922 54.7891ZM248.297 54.543V54.7891C248.297 55.3203 248.344 55.8164 248.438 56.2773C248.531 56.7383 248.68 57.1445 248.883 57.4961C249.094 57.8398 249.367 58.1094 249.703 58.3047C250.039 58.5 250.449 58.5977 250.934 58.5977C251.402 58.5977 251.805 58.5 252.141 58.3047C252.477 58.1094 252.746 57.8398 252.949 57.4961C253.152 57.1445 253.301 56.7383 253.395 56.2773C253.496 55.8164 253.547 55.3203 253.547 54.7891V54.543C253.547 54.0273 253.496 53.543 253.395 53.0898C253.301 52.6289 253.148 52.2227 252.938 51.8711C252.734 51.5117 252.465 51.2305 252.129 51.0273C251.793 50.8242 251.387 50.7227 250.91 50.7227C250.434 50.7227 250.027 50.8242 249.691 51.0273C249.363 51.2305 249.094 51.5117 248.883 51.8711C248.68 52.2227 248.531 52.6289 248.438 53.0898C248.344 53.543 248.297 54.0273 248.297 54.543ZM262.383 51.0859V61H259.008V48.3203H262.184L262.383 51.0859ZM266.203 48.2383L266.145 51.3672C265.98 51.3438 265.781 51.3242 265.547 51.3086C265.32 51.2852 265.113 51.2734 264.926 51.2734C264.449 51.2734 264.035 51.3359 263.684 51.4609C263.34 51.5781 263.051 51.7539 262.816 51.9883C262.59 52.2227 262.418 52.5078 262.301 52.8438C262.191 53.1797 262.129 53.5625 262.113 53.9922L261.434 53.7812C261.434 52.9609 261.516 52.207 261.68 51.5195C261.844 50.8242 262.082 50.2188 262.395 49.7031C262.715 49.1875 263.105 48.7891 263.566 48.5078C264.027 48.2266 264.555 48.0859 265.148 48.0859C265.336 48.0859 265.527 48.1016 265.723 48.1328C265.918 48.1562 266.078 48.1914 266.203 48.2383ZM273.398 61.2344C272.414 61.2344 271.531 61.0781 270.75 60.7656C269.969 60.4453 269.305 60.0039 268.758 59.4414C268.219 58.8789 267.805 58.2266 267.516 57.4844C267.227 56.7344 267.082 55.9375 267.082 55.0938V54.625C267.082 53.6641 267.219 52.7852 267.492 51.9883C267.766 51.1914 268.156 50.5 268.664 49.9141C269.18 49.3281 269.805 48.8789 270.539 48.5664C271.273 48.2461 272.102 48.0859 273.023 48.0859C273.922 48.0859 274.719 48.2344 275.414 48.5312C276.109 48.8281 276.691 49.25 277.16 49.7969C277.637 50.3438 277.996 51 278.238 51.7656C278.48 52.5234 278.602 53.3672 278.602 54.2969V55.7031H268.523V53.4531H275.285V53.1953C275.285 52.7266 275.199 52.3086 275.027 51.9414C274.863 51.5664 274.613 51.2695 274.277 51.0508C273.941 50.832 273.512 50.7227 272.988 50.7227C272.543 50.7227 272.16 50.8203 271.84 51.0156C271.52 51.2109 271.258 51.4844 271.055 51.8359C270.859 52.1875 270.711 52.6016 270.609 53.0781C270.516 53.5469 270.469 54.0625 270.469 54.625V55.0938C270.469 55.6016 270.539 56.0703 270.68 56.5C270.828 56.9297 271.035 57.3008 271.301 57.6133C271.574 57.9258 271.902 58.168 272.285 58.3398C272.676 58.5117 273.117 58.5977 273.609 58.5977C274.219 58.5977 274.785 58.4805 275.309 58.2461C275.84 58.0039 276.297 57.6406 276.68 57.1562L278.32 58.9375C278.055 59.3203 277.691 59.6875 277.23 60.0391C276.777 60.3906 276.23 60.6797 275.59 60.9062C274.949 61.125 274.219 61.2344 273.398 61.2344ZM283.898 51.0859V61H280.523V48.3203H283.699L283.898 51.0859ZM287.719 48.2383L287.66 51.3672C287.496 51.3438 287.297 51.3242 287.062 51.3086C286.836 51.2852 286.629 51.2734 286.441 51.2734C285.965 51.2734 285.551 51.3359 285.199 51.4609C284.855 51.5781 284.566 51.7539 284.332 51.9883C284.105 52.2227 283.934 52.5078 283.816 52.8438C283.707 53.1797 283.645 53.5625 283.629 53.9922L282.949 53.7812C282.949 52.9609 283.031 52.207 283.195 51.5195C283.359 50.8242 283.598 50.2188 283.91 49.7031C284.23 49.1875 284.621 48.7891 285.082 48.5078C285.543 48.2266 286.07 48.0859 286.664 48.0859C286.852 48.0859 287.043 48.1016 287.238 48.1328C287.434 48.1562 287.594 48.1914 287.719 48.2383Z" fill="#888888"/>
<path d="M109.219 107.422H100.734V101.07H109.219C110.375 101.07 111.312 100.875 112.031 100.484C112.75 100.094 113.273 99.5547 113.602 98.8672C113.945 98.1641 114.117 97.375 114.117 96.5C114.117 95.5625 113.945 94.6953 113.602 93.8984C113.273 93.1016 112.75 92.4609 112.031 91.9766C111.312 91.4766 110.375 91.2266 109.219 91.2266H103.828V119H95.6016V84.875H109.219C111.953 84.875 114.305 85.375 116.273 86.375C118.258 87.375 119.781 88.75 120.844 90.5C121.906 92.2344 122.438 94.2188 122.438 96.4531C122.438 98.6562 121.906 100.578 120.844 102.219C119.781 103.859 118.258 105.141 116.273 106.062C114.305 106.969 111.953 107.422 109.219 107.422ZM134.461 99.9219V119H126.562V93.6406H133.945L134.461 99.9219ZM141.961 93.4531L141.82 100.789C141.508 100.758 141.086 100.719 140.555 100.672C140.023 100.625 139.578 100.602 139.219 100.602C138.297 100.602 137.5 100.711 136.828 100.93C136.172 101.133 135.625 101.445 135.188 101.867C134.766 102.273 134.453 102.789 134.25 103.414C134.062 104.039 133.977 104.766 133.992 105.594L132.562 104.656C132.562 102.953 132.727 101.406 133.055 100.016C133.398 98.6094 133.883 97.3984 134.508 96.3828C135.133 95.3516 135.891 94.5625 136.781 94.0156C137.672 93.4531 138.672 93.1719 139.781 93.1719C140.172 93.1719 140.555 93.1953 140.93 93.2422C141.32 93.2891 141.664 93.3594 141.961 93.4531ZM142.852 106.578V106.086C142.852 104.227 143.117 102.516 143.648 100.953C144.18 99.375 144.961 98.0078 145.992 96.8516C147.023 95.6953 148.297 94.7969 149.812 94.1562C151.328 93.5 153.078 93.1719 155.062 93.1719C157.062 93.1719 158.82 93.5 160.336 94.1562C161.867 94.7969 163.148 95.6953 164.18 96.8516C165.211 98.0078 165.992 99.375 166.523 100.953C167.055 102.516 167.32 104.227 167.32 106.086V106.578C167.32 108.422 167.055 110.133 166.523 111.711C165.992 113.273 165.211 114.641 164.18 115.812C163.148 116.969 161.875 117.867 160.359 118.508C158.844 119.148 157.094 119.469 155.109 119.469C153.125 119.469 151.367 119.148 149.836 118.508C148.305 117.867 147.023 116.969 145.992 115.812C144.961 114.641 144.18 113.273 143.648 111.711C143.117 110.133 142.852 108.422 142.852 106.578ZM150.75 106.086V106.578C150.75 107.531 150.82 108.422 150.961 109.25C151.102 110.078 151.336 110.805 151.664 111.43C151.992 112.039 152.438 112.516 153 112.859C153.562 113.203 154.266 113.375 155.109 113.375C155.938 113.375 156.625 113.203 157.172 112.859C157.734 112.516 158.18 112.039 158.508 111.43C158.836 110.805 159.07 110.078 159.211 109.25C159.352 108.422 159.422 107.531 159.422 106.578V106.086C159.422 105.164 159.352 104.297 159.211 103.484C159.07 102.656 158.836 101.93 158.508 101.305C158.18 100.664 157.734 100.164 157.172 99.8047C156.609 99.4453 155.906 99.2656 155.062 99.2656C154.234 99.2656 153.539 99.4453 152.977 99.8047C152.43 100.164 151.992 100.664 151.664 101.305C151.336 101.93 151.102 102.656 150.961 103.484C150.82 104.297 150.75 105.164 150.75 106.086ZM171.422 93.6406H179.344V119.82C179.344 121.852 178.953 123.562 178.172 124.953C177.391 126.359 176.273 127.422 174.82 128.141C173.367 128.875 171.633 129.242 169.617 129.242C168.945 129.242 168.328 129.211 167.766 129.148C167.188 129.102 166.555 129 165.867 128.844V122.867C166.273 122.93 166.648 122.977 166.992 123.008C167.336 123.055 167.711 123.078 168.117 123.078C168.836 123.078 169.438 122.961 169.922 122.727C170.406 122.492 170.773 122.133 171.023 121.648C171.289 121.164 171.422 120.555 171.422 119.82V93.6406ZM170.836 87.1016C170.836 85.9766 171.242 85.0547 172.055 84.3359C172.867 83.6172 173.922 83.2578 175.219 83.2578C176.516 83.2578 177.57 83.6172 178.383 84.3359C179.195 85.0547 179.602 85.9766 179.602 87.1016C179.602 88.2266 179.195 89.1484 178.383 89.8672C177.57 90.5859 176.516 90.9453 175.219 90.9453C173.922 90.9453 172.867 90.5859 172.055 89.8672C171.242 89.1484 170.836 88.2266 170.836 87.1016ZM196.102 119.469C194.039 119.469 192.195 119.148 190.57 118.508C188.945 117.852 187.57 116.953 186.445 115.812C185.336 114.672 184.484 113.359 183.891 111.875C183.312 110.391 183.023 108.82 183.023 107.164V106.273C183.023 104.414 183.281 102.695 183.797 101.117C184.312 99.5234 185.078 98.1328 186.094 96.9453C187.109 95.7578 188.383 94.8359 189.914 94.1797C191.445 93.5078 193.227 93.1719 195.258 93.1719C197.055 93.1719 198.664 93.4609 200.086 94.0391C201.508 94.6172 202.711 95.4453 203.695 96.5234C204.695 97.6016 205.453 98.9062 205.969 100.438C206.5 101.969 206.766 103.688 206.766 105.594V108.805H186.047V103.859H199.055V103.25C199.07 102.406 198.922 101.688 198.609 101.094C198.312 100.5 197.875 100.047 197.297 99.7344C196.719 99.4219 196.016 99.2656 195.188 99.2656C194.328 99.2656 193.617 99.4531 193.055 99.8281C192.508 100.203 192.078 100.719 191.766 101.375C191.469 102.016 191.258 102.758 191.133 103.602C191.008 104.445 190.945 105.336 190.945 106.273V107.164C190.945 108.102 191.07 108.953 191.32 109.719C191.586 110.484 191.961 111.141 192.445 111.688C192.945 112.219 193.539 112.633 194.227 112.93C194.93 113.227 195.727 113.375 196.617 113.375C197.695 113.375 198.758 113.172 199.805 112.766C200.852 112.359 201.75 111.688 202.5 110.75L206.086 115.016C205.57 115.75 204.836 116.461 203.883 117.148C202.945 117.836 201.82 118.398 200.508 118.836C199.195 119.258 197.727 119.469 196.102 119.469ZM220.688 113.375C221.422 113.375 222.047 113.242 222.562 112.977C223.094 112.695 223.492 112.305 223.758 111.805C224.039 111.289 224.172 110.672 224.156 109.953H231.586C231.602 111.859 231.133 113.531 230.18 114.969C229.242 116.391 227.961 117.5 226.336 118.297C224.727 119.078 222.906 119.469 220.875 119.469C218.891 119.469 217.156 119.148 215.672 118.508C214.188 117.852 212.945 116.945 211.945 115.789C210.961 114.617 210.219 113.25 209.719 111.688C209.234 110.125 208.992 108.43 208.992 106.602V106.062C208.992 104.234 209.234 102.539 209.719 100.977C210.219 99.3984 210.961 98.0312 211.945 96.875C212.945 95.7031 214.18 94.7969 215.648 94.1562C217.133 93.5 218.859 93.1719 220.828 93.1719C222.938 93.1719 224.797 93.5703 226.406 94.3672C228.031 95.1641 229.305 96.3203 230.227 97.8359C231.148 99.3516 231.602 101.188 231.586 103.344H224.156C224.172 102.578 224.055 101.891 223.805 101.281C223.555 100.672 223.164 100.188 222.633 99.8281C222.117 99.4531 221.453 99.2656 220.641 99.2656C219.828 99.2656 219.172 99.4453 218.672 99.8047C218.172 100.164 217.789 100.664 217.523 101.305C217.273 101.93 217.102 102.648 217.008 103.461C216.93 104.273 216.891 105.141 216.891 106.062V106.602C216.891 107.539 216.93 108.422 217.008 109.25C217.102 110.062 217.281 110.781 217.547 111.406C217.812 112.016 218.195 112.5 218.695 112.859C219.195 113.203 219.859 113.375 220.688 113.375ZM248.32 93.6406V99.125H233.039V93.6406H248.32ZM236.25 87.3359H244.148V110.727C244.148 111.398 244.227 111.922 244.383 112.297C244.539 112.656 244.805 112.914 245.18 113.07C245.57 113.211 246.086 113.281 246.727 113.281C247.18 113.281 247.555 113.273 247.852 113.258C248.148 113.227 248.43 113.188 248.695 113.141V118.789C248.023 119.008 247.32 119.172 246.586 119.281C245.852 119.406 245.07 119.469 244.242 119.469C242.555 119.469 241.109 119.203 239.906 118.672C238.719 118.141 237.812 117.305 237.188 116.164C236.562 115.023 236.25 113.539 236.25 111.711V87.3359ZM277.406 107.422H268.922V101.07H277.406C278.562 101.07 279.5 100.875 280.219 100.484C280.938 100.094 281.461 99.5547 281.789 98.8672C282.133 98.1641 282.305 97.375 282.305 96.5C282.305 95.5625 282.133 94.6953 281.789 93.8984C281.461 93.1016 280.938 92.4609 280.219 91.9766C279.5 91.4766 278.562 91.2266 277.406 91.2266H272.016V119H263.789V84.875H277.406C280.141 84.875 282.492 85.375 284.461 86.375C286.445 87.375 287.969 88.75 289.031 90.5C290.094 92.2344 290.625 94.2188 290.625 96.4531C290.625 98.6562 290.094 100.578 289.031 102.219C287.969 103.859 286.445 105.141 284.461 106.062C282.492 106.969 280.141 107.422 277.406 107.422ZM302.414 83V119H294.516V83H302.414ZM301.477 105.453L299.625 105.5C299.625 103.719 299.844 102.078 300.281 100.578C300.719 99.0781 301.344 97.7734 302.156 96.6641C302.969 95.5547 303.945 94.6953 305.086 94.0859C306.227 93.4766 307.492 93.1719 308.883 93.1719C310.133 93.1719 311.273 93.3516 312.305 93.7109C313.352 94.0703 314.25 94.6484 315 95.4453C315.766 96.2422 316.352 97.2812 316.758 98.5625C317.18 99.8438 317.391 101.406 317.391 103.25V119H309.445V103.203C309.445 102.172 309.297 101.375 309 100.812C308.719 100.234 308.312 99.8359 307.781 99.6172C307.25 99.3828 306.602 99.2656 305.836 99.2656C304.914 99.2656 304.164 99.4219 303.586 99.7344C303.008 100.047 302.562 100.484 302.25 101.047C301.953 101.594 301.75 102.242 301.641 102.992C301.531 103.742 301.477 104.562 301.477 105.453ZM330.117 93.6406V119H322.195V93.6406H330.117ZM321.727 87.1016C321.727 85.9766 322.133 85.0547 322.945 84.3359C323.758 83.6172 324.812 83.2578 326.109 83.2578C327.406 83.2578 328.461 83.6172 329.273 84.3359C330.086 85.0547 330.492 85.9766 330.492 87.1016C330.492 88.2266 330.086 89.1484 329.273 89.8672C328.461 90.5859 327.406 90.9453 326.109 90.9453C324.812 90.9453 323.758 90.5859 322.945 89.8672C322.133 89.1484 321.727 88.2266 321.727 87.1016ZM343.336 83V119H335.414V83H343.336ZM347.227 106.578V106.086C347.227 104.227 347.492 102.516 348.023 100.953C348.555 99.375 349.336 98.0078 350.367 96.8516C351.398 95.6953 352.672 94.7969 354.188 94.1562C355.703 93.5 357.453 93.1719 359.438 93.1719C361.438 93.1719 363.195 93.5 364.711 94.1562C366.242 94.7969 367.523 95.6953 368.555 96.8516C369.586 98.0078 370.367 99.375 370.898 100.953C371.43 102.516 371.695 104.227 371.695 106.086V106.578C371.695 108.422 371.43 110.133 370.898 111.711C370.367 113.273 369.586 114.641 368.555 115.812C367.523 116.969 366.25 117.867 364.734 118.508C363.219 119.148 361.469 119.469 359.484 119.469C357.5 119.469 355.742 119.148 354.211 118.508C352.68 117.867 351.398 116.969 350.367 115.812C349.336 114.641 348.555 113.273 348.023 111.711C347.492 110.133 347.227 108.422 347.227 106.578ZM355.125 106.086V106.578C355.125 107.531 355.195 108.422 355.336 109.25C355.477 110.078 355.711 110.805 356.039 111.43C356.367 112.039 356.812 112.516 357.375 112.859C357.938 113.203 358.641 113.375 359.484 113.375C360.312 113.375 361 113.203 361.547 112.859C362.109 112.516 362.555 112.039 362.883 111.43C363.211 110.805 363.445 110.078 363.586 109.25C363.727 108.422 363.797 107.531 363.797 106.578V106.086C363.797 105.164 363.727 104.297 363.586 103.484C363.445 102.656 363.211 101.93 362.883 101.305C362.555 100.664 362.109 100.164 361.547 99.8047C360.984 99.4453 360.281 99.2656 359.438 99.2656C358.609 99.2656 357.914 99.4453 357.352 99.8047C356.805 100.164 356.367 100.664 356.039 101.305C355.711 101.93 355.477 102.656 355.336 103.484C355.195 104.297 355.125 105.164 355.125 106.086ZM388.5 111.875C388.5 111.438 388.352 111.062 388.055 110.75C387.773 110.422 387.273 110.125 386.555 109.859C385.836 109.578 384.828 109.297 383.531 109.016C382.297 108.75 381.133 108.398 380.039 107.961C378.961 107.523 378.016 106.992 377.203 106.367C376.391 105.742 375.75 105 375.281 104.141C374.828 103.281 374.602 102.297 374.602 101.188C374.602 100.109 374.828 99.0938 375.281 98.1406C375.75 97.1719 376.43 96.3203 377.32 95.5859C378.227 94.8359 379.328 94.25 380.625 93.8281C381.922 93.3906 383.398 93.1719 385.055 93.1719C387.336 93.1719 389.305 93.5234 390.961 94.2266C392.617 94.9141 393.891 95.8828 394.781 97.1328C395.688 98.3672 396.141 99.7969 396.141 101.422H388.242C388.242 100.781 388.133 100.234 387.914 99.7812C387.711 99.3281 387.375 98.9844 386.906 98.75C386.438 98.5 385.812 98.375 385.031 98.375C384.484 98.375 383.984 98.4766 383.531 98.6797C383.094 98.8828 382.742 99.1641 382.477 99.5234C382.211 99.8828 382.078 100.305 382.078 100.789C382.078 101.133 382.156 101.445 382.312 101.727C382.484 101.992 382.742 102.242 383.086 102.477C383.43 102.695 383.867 102.898 384.398 103.086C384.93 103.258 385.57 103.414 386.32 103.555C388.023 103.867 389.617 104.312 391.102 104.891C392.586 105.469 393.789 106.289 394.711 107.352C395.648 108.414 396.117 109.844 396.117 111.641C396.117 112.766 395.859 113.805 395.344 114.758C394.828 115.695 394.086 116.523 393.117 117.242C392.148 117.945 390.984 118.492 389.625 118.883C388.266 119.273 386.734 119.469 385.031 119.469C382.609 119.469 380.562 119.039 378.891 118.18C377.219 117.305 375.953 116.211 375.094 114.898C374.25 113.57 373.828 112.227 373.828 110.867H381.188C381.219 111.648 381.406 112.289 381.75 112.789C382.109 113.289 382.586 113.656 383.18 113.891C383.773 114.125 384.461 114.242 385.242 114.242C385.961 114.242 386.555 114.141 387.023 113.938C387.508 113.734 387.875 113.461 388.125 113.117C388.375 112.758 388.5 112.344 388.5 111.875ZM398.836 106.578V106.086C398.836 104.227 399.102 102.516 399.633 100.953C400.164 99.375 400.945 98.0078 401.977 96.8516C403.008 95.6953 404.281 94.7969 405.797 94.1562C407.312 93.5 409.062 93.1719 411.047 93.1719C413.047 93.1719 414.805 93.5 416.32 94.1562C417.852 94.7969 419.133 95.6953 420.164 96.8516C421.195 98.0078 421.977 99.375 422.508 100.953C423.039 102.516 423.305 104.227 423.305 106.086V106.578C423.305 108.422 423.039 110.133 422.508 111.711C421.977 113.273 421.195 114.641 420.164 115.812C419.133 116.969 417.859 117.867 416.344 118.508C414.828 119.148 413.078 119.469 411.094 119.469C409.109 119.469 407.352 119.148 405.82 118.508C404.289 117.867 403.008 116.969 401.977 115.812C400.945 114.641 400.164 113.273 399.633 111.711C399.102 110.133 398.836 108.422 398.836 106.578ZM406.734 106.086V106.578C406.734 107.531 406.805 108.422 406.945 109.25C407.086 110.078 407.32 110.805 407.648 111.43C407.977 112.039 408.422 112.516 408.984 112.859C409.547 113.203 410.25 113.375 411.094 113.375C411.922 113.375 412.609 113.203 413.156 112.859C413.719 112.516 414.164 112.039 414.492 111.43C414.82 110.805 415.055 110.078 415.195 109.25C415.336 108.422 415.406 107.531 415.406 106.578V106.086C415.406 105.164 415.336 104.297 415.195 103.484C415.055 102.656 414.82 101.93 414.492 101.305C414.164 100.664 413.719 100.164 413.156 99.8047C412.594 99.4453 411.891 99.2656 411.047 99.2656C410.219 99.2656 409.523 99.4453 408.961 99.8047C408.414 100.164 407.977 100.664 407.648 101.305C407.32 101.93 407.086 102.656 406.945 103.484C406.805 104.297 406.734 105.164 406.734 106.086ZM434.789 98.5156V128.75H426.891V93.6406H434.25L434.789 98.5156ZM450.352 106.016V106.508C450.352 108.352 450.141 110.062 449.719 111.641C449.297 113.219 448.672 114.594 447.844 115.766C447.016 116.938 445.984 117.852 444.75 118.508C443.531 119.148 442.117 119.469 440.508 119.469C438.992 119.469 437.688 119.133 436.594 118.461C435.5 117.789 434.586 116.859 433.852 115.672C433.117 114.484 432.523 113.125 432.07 111.594C431.617 110.062 431.258 108.445 430.992 106.742V106.109C431.258 104.281 431.617 102.586 432.07 101.023C432.523 99.4453 433.117 98.0703 433.852 96.8984C434.586 95.7266 435.492 94.8125 436.57 94.1562C437.664 93.5 438.969 93.1719 440.484 93.1719C442.094 93.1719 443.508 93.4766 444.727 94.0859C445.961 94.6953 446.992 95.5703 447.82 96.7109C448.664 97.8359 449.297 99.1875 449.719 100.766C450.141 102.344 450.352 104.094 450.352 106.016ZM442.453 106.508V106.016C442.453 105.031 442.383 104.133 442.242 103.32C442.102 102.492 441.875 101.773 441.562 101.164C441.266 100.555 440.867 100.086 440.367 99.7578C439.867 99.4297 439.25 99.2656 438.516 99.2656C437.672 99.2656 436.961 99.3984 436.383 99.6641C435.82 99.9141 435.367 100.305 435.023 100.836C434.695 101.352 434.461 102 434.32 102.781C434.195 103.547 434.141 104.445 434.156 105.477V107.398C434.125 108.586 434.242 109.633 434.508 110.539C434.773 111.43 435.234 112.125 435.891 112.625C436.547 113.125 437.438 113.375 438.562 113.375C439.312 113.375 439.938 113.203 440.438 112.859C440.938 112.5 441.336 112.008 441.633 111.383C441.93 110.742 442.141 110.008 442.266 109.18C442.391 108.352 442.453 107.461 442.453 106.508ZM461.602 83V119H453.703V83H461.602ZM460.664 105.453L458.812 105.5C458.812 103.719 459.031 102.078 459.469 100.578C459.906 99.0781 460.531 97.7734 461.344 96.6641C462.156 95.5547 463.133 94.6953 464.273 94.0859C465.414 93.4766 466.68 93.1719 468.07 93.1719C469.32 93.1719 470.461 93.3516 471.492 93.7109C472.539 94.0703 473.438 94.6484 474.188 95.4453C474.953 96.2422 475.539 97.2812 475.945 98.5625C476.367 99.8438 476.578 101.406 476.578 103.25V119H468.633V103.203C468.633 102.172 468.484 101.375 468.188 100.812C467.906 100.234 467.5 99.8359 466.969 99.6172C466.438 99.3828 465.789 99.2656 465.023 99.2656C464.102 99.2656 463.352 99.4219 462.773 99.7344C462.195 100.047 461.75 100.484 461.438 101.047C461.141 101.594 460.938 102.242 460.828 102.992C460.719 103.742 460.664 104.562 460.664 105.453ZM488.742 116.023L495.305 93.6406H503.789L493.594 122.773C493.375 123.414 493.086 124.102 492.727 124.836C492.367 125.586 491.875 126.297 491.25 126.969C490.625 127.641 489.82 128.188 488.836 128.609C487.867 129.031 486.664 129.242 485.227 129.242C484.461 129.242 483.898 129.203 483.539 129.125C483.195 129.062 482.664 128.945 481.945 128.773V123.125C482.148 123.125 482.32 123.125 482.461 123.125C482.617 123.125 482.789 123.125 482.977 123.125C483.82 123.125 484.492 123.039 484.992 122.867C485.508 122.695 485.898 122.445 486.164 122.117C486.445 121.789 486.664 121.391 486.82 120.922L488.742 116.023ZM487.078 93.6406L492.07 111.383L492.938 119.75H487.641L478.617 93.6406H487.078Z" fill="black"/>
<path d="M1134 0H1348C1356.28 0 1363 6.71573 1363 15V148C1363 156.284 1356.28 163 1348 163H1134V0Z" fill="#04D9FF"/>
<path d="M1234.26 103.786H1262.74V109.357H1234.26V103.786ZM1239.96 114.929H1257.04V120.5H1239.96V114.929ZM1248.5 42.5C1240.95 42.5 1233.71 45.4349 1228.37 50.6592C1223.03 55.8834 1220.03 62.969 1220.03 70.3571C1219.84 74.4057 1220.63 78.4412 1222.34 82.1315C1224.05 85.8219 1226.64 89.0616 1229.88 91.5843C1232.73 94.175 1234.26 95.6514 1234.26 98.2143H1239.96C1239.96 93.0886 1236.8 90.2193 1233.72 87.4614C1231.06 85.4676 1228.94 82.8658 1227.55 79.8838C1226.15 76.9019 1225.53 73.6308 1225.72 70.3571C1225.72 64.4466 1228.12 58.7781 1232.39 54.5988C1236.67 50.4194 1242.46 48.0714 1248.5 48.0714C1254.54 48.0714 1260.33 50.4194 1264.61 54.5988C1268.88 58.7781 1271.28 64.4466 1271.28 70.3571C1271.47 73.6333 1270.84 76.9059 1269.44 79.888C1268.04 82.8701 1265.92 85.4706 1263.25 87.4614C1260.2 90.2471 1257.04 93.0329 1257.04 98.2143H1262.74C1262.74 95.6514 1264.25 94.175 1267.12 91.5564C1270.36 89.0381 1272.94 85.8031 1274.66 82.1176C1276.37 78.4321 1277.16 74.4014 1276.97 70.3571C1276.97 66.6989 1276.24 63.0765 1274.81 59.6967C1273.37 56.3169 1271.28 53.2459 1268.63 50.6592C1265.99 48.0724 1262.85 46.0205 1259.4 44.6205C1255.94 43.2205 1252.24 42.5 1248.5 42.5Z" fill="white"/>
</svg>
