<svg width="1363" height="163" viewBox="0 0 1363 163" fill="none" xmlns="http://www.w3.org/2000/svg">
<path d="M0 15C0 6.71573 6.71573 0 15 0H37V163H15C6.71573 163 0 156.284 0 148V15Z" fill="#424242"/>
<rect width="1097" height="163" transform="translate(37)" fill="#F0F0F0"/>
<path d="M101.906 53.9219L94.3945 51.2383V48.0859L104.602 52.375V54.6367L101.906 53.9219ZM94.3945 56.1719L101.918 53.4297L104.602 52.7852V55.0352L94.3945 59.3242V56.1719ZM122.789 55.3398H126.293C126.223 56.4883 125.906 57.5078 125.344 58.3984C124.789 59.2891 124.012 59.9844 123.012 60.4844C122.02 60.9844 120.824 61.2344 119.426 61.2344C118.332 61.2344 117.352 61.0469 116.484 60.6719C115.617 60.2891 114.875 59.7422 114.258 59.0312C113.648 58.3203 113.184 57.4609 112.863 56.4531C112.543 55.4453 112.383 54.3164 112.383 53.0664V51.8828C112.383 50.6328 112.547 49.5039 112.875 48.4961C113.211 47.4805 113.688 46.6172 114.305 45.9062C114.93 45.1953 115.676 44.6484 116.543 44.2656C117.41 43.8828 118.379 43.6914 119.449 43.6914C120.871 43.6914 122.07 43.9492 123.047 44.4648C124.031 44.9805 124.793 45.6914 125.332 46.5977C125.879 47.5039 126.207 48.5352 126.316 49.6914H122.801C122.762 49.0039 122.625 48.4219 122.391 47.9453C122.156 47.4609 121.801 47.0977 121.324 46.8555C120.855 46.6055 120.23 46.4805 119.449 46.4805C118.863 46.4805 118.352 46.5898 117.914 46.8086C117.477 47.0273 117.109 47.3594 116.812 47.8047C116.516 48.25 116.293 48.8125 116.145 49.4922C116.004 50.1641 115.934 50.9531 115.934 51.8594V53.0664C115.934 53.9492 116 54.7266 116.133 55.3984C116.266 56.0625 116.469 56.625 116.742 57.0859C117.023 57.5391 117.383 57.8828 117.82 58.1172C118.266 58.3438 118.801 58.457 119.426 58.457C120.16 58.457 120.766 58.3398 121.242 58.1055C121.719 57.8711 122.082 57.5234 122.332 57.0625C122.59 56.6016 122.742 56.0273 122.789 55.3398ZM127.852 54.7891V54.543C127.852 53.6133 127.984 52.7578 128.25 51.9766C128.516 51.1875 128.902 50.5039 129.41 49.9258C129.918 49.3477 130.543 48.8984 131.285 48.5781C132.027 48.25 132.879 48.0859 133.84 48.0859C134.801 48.0859 135.656 48.25 136.406 48.5781C137.156 48.8984 137.785 49.3477 138.293 49.9258C138.809 50.5039 139.199 51.1875 139.465 51.9766C139.73 52.7578 139.863 53.6133 139.863 54.543V54.7891C139.863 55.7109 139.73 56.5664 139.465 57.3555C139.199 58.1367 138.809 58.8203 138.293 59.4062C137.785 59.9844 137.16 60.4336 136.418 60.7539C135.676 61.0742 134.824 61.2344 133.863 61.2344C132.902 61.2344 132.047 61.0742 131.297 60.7539C130.555 60.4336 129.926 59.9844 129.41 59.4062C128.902 58.8203 128.516 58.1367 128.25 57.3555C127.984 56.5664 127.852 55.7109 127.852 54.7891ZM131.227 54.543V54.7891C131.227 55.3203 131.273 55.8164 131.367 56.2773C131.461 56.7383 131.609 57.1445 131.812 57.4961C132.023 57.8398 132.297 58.1094 132.633 58.3047C132.969 58.5 133.379 58.5977 133.863 58.5977C134.332 58.5977 134.734 58.5 135.07 58.3047C135.406 58.1094 135.676 57.8398 135.879 57.4961C136.082 57.1445 136.23 56.7383 136.324 56.2773C136.426 55.8164 136.477 55.3203 136.477 54.7891V54.543C136.477 54.0273 136.426 53.543 136.324 53.0898C136.23 52.6289 136.078 52.2227 135.867 51.8711C135.664 51.5117 135.395 51.2305 135.059 51.0273C134.723 50.8242 134.316 50.7227 133.84 50.7227C133.363 50.7227 132.957 50.8242 132.621 51.0273C132.293 51.2305 132.023 51.5117 131.812 51.8711C131.609 52.2227 131.461 52.6289 131.367 53.0898C131.273 53.543 131.227 54.0273 131.227 54.543ZM148.793 57.4961C148.793 57.2539 148.723 57.0352 148.582 56.8398C148.441 56.6445 148.18 56.4648 147.797 56.3008C147.422 56.1289 146.879 55.9727 146.168 55.832C145.527 55.6914 144.93 55.5156 144.375 55.3047C143.828 55.0859 143.352 54.8242 142.945 54.5195C142.547 54.2148 142.234 53.8555 142.008 53.4414C141.781 53.0195 141.668 52.5391 141.668 52C141.668 51.4688 141.781 50.9688 142.008 50.5C142.242 50.0312 142.574 49.6172 143.004 49.2578C143.441 48.8906 143.973 48.6055 144.598 48.4023C145.23 48.1914 145.941 48.0859 146.73 48.0859C147.832 48.0859 148.777 48.2617 149.566 48.6133C150.363 48.9648 150.973 49.4492 151.395 50.0664C151.824 50.6758 152.039 51.3711 152.039 52.1523H148.664C148.664 51.8242 148.594 51.5312 148.453 51.2734C148.32 51.0078 148.109 50.8008 147.82 50.6523C147.539 50.4961 147.172 50.418 146.719 50.418C146.344 50.418 146.02 50.4844 145.746 50.6172C145.473 50.7422 145.262 50.9141 145.113 51.1328C144.973 51.3438 144.902 51.5781 144.902 51.8359C144.902 52.0312 144.941 52.207 145.02 52.3633C145.105 52.5117 145.242 52.6484 145.43 52.7734C145.617 52.8984 145.859 53.0156 146.156 53.125C146.461 53.2266 146.836 53.3203 147.281 53.4062C148.195 53.5938 149.012 53.8398 149.73 54.1445C150.449 54.4414 151.02 54.8477 151.441 55.3633C151.863 55.8711 152.074 56.5391 152.074 57.3672C152.074 57.9297 151.949 58.4453 151.699 58.9141C151.449 59.3828 151.09 59.793 150.621 60.1445C150.152 60.4883 149.59 60.7578 148.934 60.9531C148.285 61.1406 147.555 61.2344 146.742 61.2344C145.562 61.2344 144.562 61.0234 143.742 60.6016C142.93 60.1797 142.312 59.6445 141.891 58.9961C141.477 58.3398 141.27 57.668 141.27 56.9805H144.469C144.484 57.4414 144.602 57.8125 144.82 58.0938C145.047 58.375 145.332 58.5781 145.676 58.7031C146.027 58.8281 146.406 58.8906 146.812 58.8906C147.25 58.8906 147.613 58.832 147.902 58.7148C148.191 58.5898 148.41 58.4258 148.559 58.2227C148.715 58.0117 148.793 57.7695 148.793 57.4961ZM157.641 50.9453V61H154.254V48.3203H157.43L157.641 50.9453ZM157.172 54.2148H156.234C156.234 53.332 156.34 52.5195 156.551 51.7773C156.77 51.0273 157.086 50.3789 157.5 49.832C157.922 49.2773 158.441 48.8477 159.059 48.543C159.676 48.2383 160.391 48.0859 161.203 48.0859C161.766 48.0859 162.281 48.1719 162.75 48.3438C163.219 48.5078 163.621 48.7695 163.957 49.1289C164.301 49.4805 164.566 49.9414 164.754 50.5117C164.941 51.0742 165.035 51.75 165.035 52.5391V61H161.66V52.9141C161.66 52.3359 161.582 51.8906 161.426 51.5781C161.27 51.2656 161.047 51.0469 160.758 50.9219C160.477 50.7969 160.137 50.7344 159.738 50.7344C159.301 50.7344 158.918 50.8242 158.59 51.0039C158.27 51.1836 158.004 51.4336 157.793 51.7539C157.582 52.0664 157.426 52.4336 157.324 52.8555C157.223 53.2773 157.172 53.7305 157.172 54.2148ZM164.719 53.8281L163.512 53.9805C163.512 53.1523 163.613 52.3828 163.816 51.6719C164.027 50.9609 164.336 50.3359 164.742 49.7969C165.156 49.2578 165.668 48.8398 166.277 48.543C166.887 48.2383 167.59 48.0859 168.387 48.0859C168.996 48.0859 169.551 48.1758 170.051 48.3555C170.551 48.5273 170.977 48.8047 171.328 49.1875C171.688 49.5625 171.961 50.0547 172.148 50.6641C172.344 51.2734 172.441 52.0195 172.441 52.9023V61H169.055V52.9023C169.055 52.3164 168.977 51.8711 168.82 51.5664C168.672 51.2539 168.453 51.0391 168.164 50.9219C167.883 50.7969 167.547 50.7344 167.156 50.7344C166.75 50.7344 166.395 50.8164 166.09 50.9805C165.785 51.1367 165.531 51.3555 165.328 51.6367C165.125 51.918 164.973 52.2461 164.871 52.6211C164.77 52.9883 164.719 53.3906 164.719 53.8281ZM178.617 48.3203V61H175.23V48.3203H178.617ZM175.02 45.0156C175.02 44.5234 175.191 44.1172 175.535 43.7969C175.879 43.4766 176.34 43.3164 176.918 43.3164C177.488 43.3164 177.945 43.4766 178.289 43.7969C178.641 44.1172 178.816 44.5234 178.816 45.0156C178.816 45.5078 178.641 45.9141 178.289 46.2344C177.945 46.5547 177.488 46.7148 176.918 46.7148C176.34 46.7148 175.879 46.5547 175.535 46.2344C175.191 45.9141 175.02 45.5078 175.02 45.0156ZM186.645 58.5977C187.059 58.5977 187.426 58.5195 187.746 58.3633C188.066 58.1992 188.316 57.9727 188.496 57.6836C188.684 57.3867 188.781 57.0391 188.789 56.6406H191.965C191.957 57.5312 191.719 58.3242 191.25 59.0195C190.781 59.707 190.152 60.25 189.363 60.6484C188.574 61.0391 187.691 61.2344 186.715 61.2344C185.73 61.2344 184.871 61.0703 184.137 60.7422C183.41 60.4141 182.805 59.9609 182.32 59.3828C181.836 58.7969 181.473 58.1172 181.23 57.3438C180.988 56.5625 180.867 55.7266 180.867 54.8359V54.4961C180.867 53.5977 180.988 52.7617 181.23 51.9883C181.473 51.207 181.836 50.5273 182.32 49.9492C182.805 49.3633 183.41 48.9062 184.137 48.5781C184.863 48.25 185.715 48.0859 186.691 48.0859C187.73 48.0859 188.641 48.2852 189.422 48.6836C190.211 49.082 190.828 49.6523 191.273 50.3945C191.727 51.1289 191.957 52 191.965 53.0078H188.789C188.781 52.5859 188.691 52.2031 188.52 51.8594C188.355 51.5156 188.113 51.2422 187.793 51.0391C187.48 50.8281 187.094 50.7227 186.633 50.7227C186.141 50.7227 185.738 50.8281 185.426 51.0391C185.113 51.2422 184.871 51.5234 184.699 51.8828C184.527 52.2344 184.406 52.6367 184.336 53.0898C184.273 53.5352 184.242 54.0039 184.242 54.4961V54.8359C184.242 55.3281 184.273 55.8008 184.336 56.2539C184.398 56.707 184.516 57.1094 184.688 57.4609C184.867 57.8125 185.113 58.0898 185.426 58.293C185.738 58.4961 186.145 58.5977 186.645 58.5977ZM211.559 58.2578V61H202.477V58.2578H211.559ZM203.625 43.9375V61H200.109V43.9375H203.625ZM210.375 50.8867V53.5586H202.477V50.8867H210.375ZM211.547 43.9375V46.6914H202.477V43.9375H211.547ZM216.117 48.3203L218.215 52.1758L220.371 48.3203H223.969L220.383 54.5195L224.133 61H220.523L218.238 56.9219L215.953 61H212.344L216.094 54.5195L212.508 48.3203H216.117ZM228.984 50.7578V65.875H225.609V48.3203H228.738L228.984 50.7578ZM237.012 54.5195V54.7656C237.012 55.6875 236.902 56.543 236.684 57.332C236.473 58.1211 236.16 58.8086 235.746 59.3945C235.332 59.9727 234.816 60.4258 234.199 60.7539C233.59 61.0742 232.887 61.2344 232.09 61.2344C231.316 61.2344 230.645 61.0781 230.074 60.7656C229.504 60.4531 229.023 60.0156 228.633 59.4531C228.25 58.8828 227.941 58.2227 227.707 57.4727C227.473 56.7227 227.293 55.918 227.168 55.0586V54.4141C227.293 53.4922 227.473 52.6484 227.707 51.8828C227.941 51.1094 228.25 50.4414 228.633 49.8789C229.023 49.3086 229.5 48.8672 230.062 48.5547C230.633 48.2422 231.301 48.0859 232.066 48.0859C232.871 48.0859 233.578 48.2383 234.188 48.543C234.805 48.8477 235.32 49.2852 235.734 49.8555C236.156 50.4258 236.473 51.1055 236.684 51.8945C236.902 52.6836 237.012 53.5586 237.012 54.5195ZM233.625 54.7656V54.5195C233.625 53.9805 233.578 53.4844 233.484 53.0312C233.398 52.5703 233.258 52.168 233.062 51.8242C232.875 51.4805 232.625 51.2148 232.312 51.0273C232.008 50.832 231.637 50.7344 231.199 50.7344C230.738 50.7344 230.344 50.8086 230.016 50.957C229.695 51.1055 229.434 51.3203 229.23 51.6016C229.027 51.8828 228.875 52.2188 228.773 52.6094C228.672 53 228.609 53.4414 228.586 53.9336V55.5625C228.625 56.1406 228.734 56.6602 228.914 57.1211C229.094 57.5742 229.371 57.9336 229.746 58.1992C230.121 58.4648 230.613 58.5977 231.223 58.5977C231.668 58.5977 232.043 58.5 232.348 58.3047C232.652 58.1016 232.898 57.8242 233.086 57.4727C233.281 57.1211 233.418 56.7148 233.496 56.2539C233.582 55.793 233.625 55.2969 233.625 54.7656ZM242.672 43V61H239.285V43H242.672ZM244.922 54.7891V54.543C244.922 53.6133 245.055 52.7578 245.32 51.9766C245.586 51.1875 245.973 50.5039 246.48 49.9258C246.988 49.3477 247.613 48.8984 248.355 48.5781C249.098 48.25 249.949 48.0859 250.91 48.0859C251.871 48.0859 252.727 48.25 253.477 48.5781C254.227 48.8984 254.855 49.3477 255.363 49.9258C255.879 50.5039 256.27 51.1875 256.535 51.9766C256.801 52.7578 256.934 53.6133 256.934 54.543V54.7891C256.934 55.7109 256.801 56.5664 256.535 57.3555C256.27 58.1367 255.879 58.8203 255.363 59.4062C254.855 59.9844 254.23 60.4336 253.488 60.7539C252.746 61.0742 251.895 61.2344 250.934 61.2344C249.973 61.2344 249.117 61.0742 248.367 60.7539C247.625 60.4336 246.996 59.9844 246.48 59.4062C245.973 58.8203 245.586 58.1367 245.32 57.3555C245.055 56.5664 244.922 55.7109 244.922 54.7891ZM248.297 54.543V54.7891C248.297 55.3203 248.344 55.8164 248.438 56.2773C248.531 56.7383 248.68 57.1445 248.883 57.4961C249.094 57.8398 249.367 58.1094 249.703 58.3047C250.039 58.5 250.449 58.5977 250.934 58.5977C251.402 58.5977 251.805 58.5 252.141 58.3047C252.477 58.1094 252.746 57.8398 252.949 57.4961C253.152 57.1445 253.301 56.7383 253.395 56.2773C253.496 55.8164 253.547 55.3203 253.547 54.7891V54.543C253.547 54.0273 253.496 53.543 253.395 53.0898C253.301 52.6289 253.148 52.2227 252.938 51.8711C252.734 51.5117 252.465 51.2305 252.129 51.0273C251.793 50.8242 251.387 50.7227 250.91 50.7227C250.434 50.7227 250.027 50.8242 249.691 51.0273C249.363 51.2305 249.094 51.5117 248.883 51.8711C248.68 52.2227 248.531 52.6289 248.438 53.0898C248.344 53.543 248.297 54.0273 248.297 54.543ZM262.383 51.0859V61H259.008V48.3203H262.184L262.383 51.0859ZM266.203 48.2383L266.145 51.3672C265.98 51.3438 265.781 51.3242 265.547 51.3086C265.32 51.2852 265.113 51.2734 264.926 51.2734C264.449 51.2734 264.035 51.3359 263.684 51.4609C263.34 51.5781 263.051 51.7539 262.816 51.9883C262.59 52.2227 262.418 52.5078 262.301 52.8438C262.191 53.1797 262.129 53.5625 262.113 53.9922L261.434 53.7812C261.434 52.9609 261.516 52.207 261.68 51.5195C261.844 50.8242 262.082 50.2188 262.395 49.7031C262.715 49.1875 263.105 48.7891 263.566 48.5078C264.027 48.2266 264.555 48.0859 265.148 48.0859C265.336 48.0859 265.527 48.1016 265.723 48.1328C265.918 48.1562 266.078 48.1914 266.203 48.2383ZM273.398 61.2344C272.414 61.2344 271.531 61.0781 270.75 60.7656C269.969 60.4453 269.305 60.0039 268.758 59.4414C268.219 58.8789 267.805 58.2266 267.516 57.4844C267.227 56.7344 267.082 55.9375 267.082 55.0938V54.625C267.082 53.6641 267.219 52.7852 267.492 51.9883C267.766 51.1914 268.156 50.5 268.664 49.9141C269.18 49.3281 269.805 48.8789 270.539 48.5664C271.273 48.2461 272.102 48.0859 273.023 48.0859C273.922 48.0859 274.719 48.2344 275.414 48.5312C276.109 48.8281 276.691 49.25 277.16 49.7969C277.637 50.3438 277.996 51 278.238 51.7656C278.48 52.5234 278.602 53.3672 278.602 54.2969V55.7031H268.523V53.4531H275.285V53.1953C275.285 52.7266 275.199 52.3086 275.027 51.9414C274.863 51.5664 274.613 51.2695 274.277 51.0508C273.941 50.832 273.512 50.7227 272.988 50.7227C272.543 50.7227 272.16 50.8203 271.84 51.0156C271.52 51.2109 271.258 51.4844 271.055 51.8359C270.859 52.1875 270.711 52.6016 270.609 53.0781C270.516 53.5469 270.469 54.0625 270.469 54.625V55.0938C270.469 55.6016 270.539 56.0703 270.68 56.5C270.828 56.9297 271.035 57.3008 271.301 57.6133C271.574 57.9258 271.902 58.168 272.285 58.3398C272.676 58.5117 273.117 58.5977 273.609 58.5977C274.219 58.5977 274.785 58.4805 275.309 58.2461C275.84 58.0039 276.297 57.6406 276.68 57.1562L278.32 58.9375C278.055 59.3203 277.691 59.6875 277.23 60.0391C276.777 60.3906 276.23 60.6797 275.59 60.9062C274.949 61.125 274.219 61.2344 273.398 61.2344ZM283.898 51.0859V61H280.523V48.3203H283.699L283.898 51.0859ZM287.719 48.2383L287.66 51.3672C287.496 51.3438 287.297 51.3242 287.062 51.3086C286.836 51.2852 286.629 51.2734 286.441 51.2734C285.965 51.2734 285.551 51.3359 285.199 51.4609C284.855 51.5781 284.566 51.7539 284.332 51.9883C284.105 52.2227 283.934 52.5078 283.816 52.8438C283.707 53.1797 283.645 53.5625 283.629 53.9922L282.949 53.7812C282.949 52.9609 283.031 52.207 283.195 51.5195C283.359 50.8242 283.598 50.2188 283.91 49.7031C284.23 49.1875 284.621 48.7891 285.082 48.5078C285.543 48.2266 286.07 48.0859 286.664 48.0859C286.852 48.0859 287.043 48.1016 287.238 48.1328C287.434 48.1562 287.594 48.1914 287.719 48.2383Z" fill="#888888"/>
<path d="M110.062 92.0469L101.742 119H92.9062L105.445 84.875H111.047L110.062 92.0469ZM116.953 119L108.609 92.0469L107.531 84.875H113.203L125.812 119H116.953ZM116.625 106.273V112.625H99.1172V106.273H116.625ZM135.258 115.906L142.055 84.875H146.109L148.312 87.5234L141.07 119H136.594L135.258 115.906ZM133.453 84.875L139.195 116.141L137.719 119H132.539L125.297 84.875H133.453ZM152.039 115.977L157.734 84.875H165.867L158.625 119H153.469L152.039 115.977ZM149.039 84.875L156 116.094L154.594 119H150.117L142.711 87.4766L145.008 84.875H149.039ZM186.68 109.93C186.68 109.398 186.602 108.922 186.445 108.5C186.289 108.062 186 107.656 185.578 107.281C185.156 106.906 184.547 106.531 183.75 106.156C182.969 105.766 181.938 105.359 180.656 104.938C179.156 104.438 177.711 103.875 176.32 103.25C174.93 102.609 173.688 101.867 172.594 101.023C171.5 100.164 170.633 99.1641 169.992 98.0234C169.352 96.8672 169.031 95.5234 169.031 93.9922C169.031 92.5234 169.359 91.2031 170.016 90.0312C170.672 88.8438 171.586 87.8359 172.758 87.0078C173.945 86.1641 175.336 85.5234 176.93 85.0859C178.523 84.6328 180.266 84.4062 182.156 84.4062C184.656 84.4062 186.859 84.8438 188.766 85.7188C190.688 86.5781 192.188 87.8047 193.266 89.3984C194.359 90.9766 194.906 92.8438 194.906 95H186.727C186.727 94.1406 186.547 93.3828 186.188 92.7266C185.844 92.0703 185.32 91.5547 184.617 91.1797C183.914 90.8047 183.031 90.6172 181.969 90.6172C180.938 90.6172 180.07 90.7734 179.367 91.0859C178.664 91.3984 178.133 91.8203 177.773 92.3516C177.414 92.8672 177.234 93.4375 177.234 94.0625C177.234 94.5781 177.375 95.0469 177.656 95.4688C177.953 95.875 178.367 96.2578 178.898 96.6172C179.445 96.9766 180.102 97.3203 180.867 97.6484C181.648 97.9766 182.523 98.2969 183.492 98.6094C185.305 99.1875 186.914 99.8359 188.32 100.555C189.742 101.258 190.938 102.062 191.906 102.969C192.891 103.859 193.633 104.875 194.133 106.016C194.648 107.156 194.906 108.445 194.906 109.883C194.906 111.414 194.609 112.773 194.016 113.961C193.422 115.148 192.57 116.156 191.461 116.984C190.352 117.797 189.023 118.414 187.477 118.836C185.93 119.258 184.203 119.469 182.297 119.469C180.547 119.469 178.82 119.25 177.117 118.812C175.43 118.359 173.898 117.672 172.523 116.75C171.148 115.812 170.047 114.617 169.219 113.164C168.406 111.695 168 109.953 168 107.938H176.25C176.25 108.938 176.383 109.781 176.648 110.469C176.914 111.156 177.305 111.711 177.82 112.133C178.336 112.539 178.969 112.836 179.719 113.023C180.469 113.195 181.328 113.281 182.297 113.281C183.344 113.281 184.188 113.133 184.828 112.836C185.469 112.523 185.938 112.117 186.234 111.617C186.531 111.102 186.68 110.539 186.68 109.93ZM222.188 119H214.617L214.664 112.672H222.188C223.75 112.672 225.07 112.297 226.148 111.547C227.242 110.797 228.07 109.68 228.633 108.195C229.211 106.695 229.5 104.852 229.5 102.664V101.188C229.5 99.5469 229.336 98.1094 229.008 96.875C228.695 95.625 228.227 94.5859 227.602 93.7578C226.977 92.9141 226.195 92.2812 225.258 91.8594C224.336 91.4375 223.273 91.2266 222.07 91.2266H214.477V84.875H222.07C224.383 84.875 226.5 85.2734 228.422 86.0703C230.359 86.8516 232.031 87.9766 233.438 89.4453C234.859 90.8984 235.953 92.625 236.719 94.625C237.5 96.6094 237.891 98.8125 237.891 101.234V102.664C237.891 105.07 237.5 107.273 236.719 109.273C235.953 111.273 234.867 113 233.461 114.453C232.055 115.906 230.391 117.031 228.469 117.828C226.562 118.609 224.469 119 222.188 119ZM219.328 84.875V119H211.102V84.875H219.328ZM254.086 119.469C252.023 119.469 250.18 119.148 248.555 118.508C246.93 117.852 245.555 116.953 244.43 115.812C243.32 114.672 242.469 113.359 241.875 111.875C241.297 110.391 241.008 108.82 241.008 107.164V106.273C241.008 104.414 241.266 102.695 241.781 101.117C242.297 99.5234 243.062 98.1328 244.078 96.9453C245.094 95.7578 246.367 94.8359 247.898 94.1797C249.43 93.5078 251.211 93.1719 253.242 93.1719C255.039 93.1719 256.648 93.4609 258.07 94.0391C259.492 94.6172 260.695 95.4453 261.68 96.5234C262.68 97.6016 263.438 98.9062 263.953 100.438C264.484 101.969 264.75 103.688 264.75 105.594V108.805H244.031V103.859H257.039V103.25C257.055 102.406 256.906 101.688 256.594 101.094C256.297 100.5 255.859 100.047 255.281 99.7344C254.703 99.4219 254 99.2656 253.172 99.2656C252.312 99.2656 251.602 99.4531 251.039 99.8281C250.492 100.203 250.062 100.719 249.75 101.375C249.453 102.016 249.242 102.758 249.117 103.602C248.992 104.445 248.93 105.336 248.93 106.273V107.164C248.93 108.102 249.055 108.953 249.305 109.719C249.57 110.484 249.945 111.141 250.43 111.688C250.93 112.219 251.523 112.633 252.211 112.93C252.914 113.227 253.711 113.375 254.602 113.375C255.68 113.375 256.742 113.172 257.789 112.766C258.836 112.359 259.734 111.688 260.484 110.75L264.07 115.016C263.555 115.75 262.82 116.461 261.867 117.148C260.93 117.836 259.805 118.398 258.492 118.836C257.18 119.258 255.711 119.469 254.086 119.469ZM275.93 98.5156V128.75H268.031V93.6406H275.391L275.93 98.5156ZM291.492 106.016V106.508C291.492 108.352 291.281 110.062 290.859 111.641C290.438 113.219 289.812 114.594 288.984 115.766C288.156 116.938 287.125 117.852 285.891 118.508C284.672 119.148 283.258 119.469 281.648 119.469C280.133 119.469 278.828 119.133 277.734 118.461C276.641 117.789 275.727 116.859 274.992 115.672C274.258 114.484 273.664 113.125 273.211 111.594C272.758 110.062 272.398 108.445 272.133 106.742V106.109C272.398 104.281 272.758 102.586 273.211 101.023C273.664 99.4453 274.258 98.0703 274.992 96.8984C275.727 95.7266 276.633 94.8125 277.711 94.1562C278.805 93.5 280.109 93.1719 281.625 93.1719C283.234 93.1719 284.648 93.4766 285.867 94.0859C287.102 94.6953 288.133 95.5703 288.961 96.7109C289.805 97.8359 290.438 99.1875 290.859 100.766C291.281 102.344 291.492 104.094 291.492 106.016ZM283.594 106.508V106.016C283.594 105.031 283.523 104.133 283.383 103.32C283.242 102.492 283.016 101.773 282.703 101.164C282.406 100.555 282.008 100.086 281.508 99.7578C281.008 99.4297 280.391 99.2656 279.656 99.2656C278.812 99.2656 278.102 99.3984 277.523 99.6641C276.961 99.9141 276.508 100.305 276.164 100.836C275.836 101.352 275.602 102 275.461 102.781C275.336 103.547 275.281 104.445 275.297 105.477V107.398C275.266 108.586 275.383 109.633 275.648 110.539C275.914 111.43 276.375 112.125 277.031 112.625C277.688 113.125 278.578 113.375 279.703 113.375C280.453 113.375 281.078 113.203 281.578 112.859C282.078 112.5 282.477 112.008 282.773 111.383C283.07 110.742 283.281 110.008 283.406 109.18C283.531 108.352 283.594 107.461 283.594 106.508ZM303.352 83V119H295.43V83H303.352ZM307.242 106.578V106.086C307.242 104.227 307.508 102.516 308.039 100.953C308.57 99.375 309.352 98.0078 310.383 96.8516C311.414 95.6953 312.688 94.7969 314.203 94.1562C315.719 93.5 317.469 93.1719 319.453 93.1719C321.453 93.1719 323.211 93.5 324.727 94.1562C326.258 94.7969 327.539 95.6953 328.57 96.8516C329.602 98.0078 330.383 99.375 330.914 100.953C331.445 102.516 331.711 104.227 331.711 106.086V106.578C331.711 108.422 331.445 110.133 330.914 111.711C330.383 113.273 329.602 114.641 328.57 115.812C327.539 116.969 326.266 117.867 324.75 118.508C323.234 119.148 321.484 119.469 319.5 119.469C317.516 119.469 315.758 119.148 314.227 118.508C312.695 117.867 311.414 116.969 310.383 115.812C309.352 114.641 308.57 113.273 308.039 111.711C307.508 110.133 307.242 108.422 307.242 106.578ZM315.141 106.086V106.578C315.141 107.531 315.211 108.422 315.352 109.25C315.492 110.078 315.727 110.805 316.055 111.43C316.383 112.039 316.828 112.516 317.391 112.859C317.953 113.203 318.656 113.375 319.5 113.375C320.328 113.375 321.016 113.203 321.562 112.859C322.125 112.516 322.57 112.039 322.898 111.43C323.227 110.805 323.461 110.078 323.602 109.25C323.742 108.422 323.812 107.531 323.812 106.578V106.086C323.812 105.164 323.742 104.297 323.602 103.484C323.461 102.656 323.227 101.93 322.898 101.305C322.57 100.664 322.125 100.164 321.562 99.8047C321 99.4453 320.297 99.2656 319.453 99.2656C318.625 99.2656 317.93 99.4453 317.367 99.8047C316.82 100.164 316.383 100.664 316.055 101.305C315.727 101.93 315.492 102.656 315.352 103.484C315.211 104.297 315.141 105.164 315.141 106.086ZM342.633 116.023L349.195 93.6406H357.68L347.484 122.773C347.266 123.414 346.977 124.102 346.617 124.836C346.258 125.586 345.766 126.297 345.141 126.969C344.516 127.641 343.711 128.188 342.727 128.609C341.758 129.031 340.555 129.242 339.117 129.242C338.352 129.242 337.789 129.203 337.43 129.125C337.086 129.062 336.555 128.945 335.836 128.773V123.125C336.039 123.125 336.211 123.125 336.352 123.125C336.508 123.125 336.68 123.125 336.867 123.125C337.711 123.125 338.383 123.039 338.883 122.867C339.398 122.695 339.789 122.445 340.055 122.117C340.336 121.789 340.555 121.391 340.711 120.922L342.633 116.023ZM340.969 93.6406L345.961 111.383L346.828 119.75H341.531L332.508 93.6406H340.969ZM367.711 99.0078V119H359.812V93.6406H367.219L367.711 99.0078ZM366.75 105.453L364.945 105.5C364.945 103.719 365.156 102.078 365.578 100.578C366 99.0781 366.625 97.7734 367.453 96.6641C368.281 95.5547 369.297 94.6953 370.5 94.0859C371.719 93.4766 373.125 93.1719 374.719 93.1719C375.828 93.1719 376.836 93.3438 377.742 93.6875C378.648 94.0156 379.43 94.5391 380.086 95.2578C380.742 95.9609 381.242 96.8828 381.586 98.0234C381.945 99.1484 382.125 100.5 382.125 102.078V119H374.227V103.086C374.227 102.008 374.102 101.195 373.852 100.648C373.617 100.102 373.273 99.7344 372.82 99.5469C372.367 99.3594 371.812 99.2656 371.156 99.2656C370.469 99.2656 369.852 99.4219 369.305 99.7344C368.758 100.047 368.289 100.484 367.898 101.047C367.523 101.594 367.234 102.242 367.031 102.992C366.844 103.742 366.75 104.562 366.75 105.453ZM381.234 105.453L379.031 105.5C379.031 103.719 379.227 102.078 379.617 100.578C380.023 99.0781 380.625 97.7734 381.422 96.6641C382.234 95.5547 383.242 94.6953 384.445 94.0859C385.648 93.4766 387.047 93.1719 388.641 93.1719C389.797 93.1719 390.859 93.3438 391.828 93.6875C392.797 94.0312 393.633 94.5859 394.336 95.3516C395.039 96.1172 395.586 97.1328 395.977 98.3984C396.367 99.6484 396.562 101.195 396.562 103.039V119H388.641V103.039C388.641 101.992 388.516 101.203 388.266 100.672C388.031 100.125 387.688 99.7578 387.234 99.5703C386.781 99.3672 386.242 99.2656 385.617 99.2656C384.867 99.2656 384.219 99.4219 383.672 99.7344C383.125 100.047 382.664 100.484 382.289 101.047C381.93 101.594 381.664 102.242 381.492 102.992C381.32 103.742 381.234 104.562 381.234 105.453ZM413.367 119.469C411.305 119.469 409.461 119.148 407.836 118.508C406.211 117.852 404.836 116.953 403.711 115.812C402.602 114.672 401.75 113.359 401.156 111.875C400.578 110.391 400.289 108.82 400.289 107.164V106.273C400.289 104.414 400.547 102.695 401.062 101.117C401.578 99.5234 402.344 98.1328 403.359 96.9453C404.375 95.7578 405.648 94.8359 407.18 94.1797C408.711 93.5078 410.492 93.1719 412.523 93.1719C414.32 93.1719 415.93 93.4609 417.352 94.0391C418.773 94.6172 419.977 95.4453 420.961 96.5234C421.961 97.6016 422.719 98.9062 423.234 100.438C423.766 101.969 424.031 103.688 424.031 105.594V108.805H403.312V103.859H416.32V103.25C416.336 102.406 416.188 101.688 415.875 101.094C415.578 100.5 415.141 100.047 414.562 99.7344C413.984 99.4219 413.281 99.2656 412.453 99.2656C411.594 99.2656 410.883 99.4531 410.32 99.8281C409.773 100.203 409.344 100.719 409.031 101.375C408.734 102.016 408.523 102.758 408.398 103.602C408.273 104.445 408.211 105.336 408.211 106.273V107.164C408.211 108.102 408.336 108.953 408.586 109.719C408.852 110.484 409.227 111.141 409.711 111.688C410.211 112.219 410.805 112.633 411.492 112.93C412.195 113.227 412.992 113.375 413.883 113.375C414.961 113.375 416.023 113.172 417.07 112.766C418.117 112.359 419.016 111.688 419.766 110.75L423.352 115.016C422.836 115.75 422.102 116.461 421.148 117.148C420.211 117.836 419.086 118.398 417.773 118.836C416.461 119.258 414.992 119.469 413.367 119.469ZM435 99.0547V119H427.102V93.6406H434.508L435 99.0547ZM434.062 105.453L432.211 105.5C432.211 103.562 432.445 101.836 432.914 100.32C433.383 98.7891 434.047 97.4922 434.906 96.4297C435.766 95.3672 436.789 94.5625 437.977 94.0156C439.18 93.4531 440.516 93.1719 441.984 93.1719C443.156 93.1719 444.227 93.3438 445.195 93.6875C446.18 94.0312 447.023 94.5859 447.727 95.3516C448.445 96.1172 448.992 97.1328 449.367 98.3984C449.758 99.6484 449.953 101.195 449.953 103.039V119H442.008V103.016C442.008 102 441.867 101.227 441.586 100.695C441.305 100.148 440.898 99.7734 440.367 99.5703C439.836 99.3672 439.188 99.2656 438.422 99.2656C437.609 99.2656 436.922 99.4219 436.359 99.7344C435.797 100.047 435.344 100.484 435 101.047C434.672 101.594 434.43 102.242 434.273 102.992C434.133 103.742 434.062 104.562 434.062 105.453ZM467.695 93.6406V99.125H452.414V93.6406H467.695ZM455.625 87.3359H463.523V110.727C463.523 111.398 463.602 111.922 463.758 112.297C463.914 112.656 464.18 112.914 464.555 113.07C464.945 113.211 465.461 113.281 466.102 113.281C466.555 113.281 466.93 113.273 467.227 113.258C467.523 113.227 467.805 113.188 468.07 113.141V118.789C467.398 119.008 466.695 119.172 465.961 119.281C465.227 119.406 464.445 119.469 463.617 119.469C461.93 119.469 460.484 119.203 459.281 118.672C458.094 118.141 457.188 117.305 456.562 116.164C455.938 115.023 455.625 113.539 455.625 111.711V87.3359Z" fill="black"/>
<path d="M1134 0H1348C1356.28 0 1363 6.71573 1363 15V148C1363 156.284 1356.28 163 1348 163H1134V0Z" fill="#04D9FF"/>
<path d="M1212.5 117.5L1212.5 45.5L1284.5 45.5L1284.5 117.5L1212.5 117.5Z" fill="white" fill-opacity="0.01"/>
<path d="M1221.5 81.5125L1221.5 108.5L1275.5 108.5L1275.5 81.5" stroke="white" stroke-width="7.24" stroke-linecap="round" stroke-linejoin="round"/>
<path d="M1262 68L1248.5 54.5L1235 68" stroke="white" stroke-width="7.24" stroke-linecap="round" stroke-linejoin="round"/>
<path d="M1248.49 93.5L1248.49 54.5" stroke="white" stroke-width="7.24" stroke-linecap="round" stroke-linejoin="round"/>
</svg>
